<mxfile host="65bd71144e">
    <diagram id="Rm1swR2yiFo1THrxEDsC" name="Page-1">
        <mxGraphModel dx="736" dy="550" grid="1" gridSize="10" guides="1" tooltips="1" connect="1" arrows="1" fold="1" page="1" pageScale="1" pageWidth="827" pageHeight="1169" math="0" shadow="0">
            <root>
                <mxCell id="0"/>
                <mxCell id="1" parent="0"/>
                <mxCell id="5" style="edgeStyle=none;html=1;exitX=1;exitY=1;exitDx=0;exitDy=0;entryX=0.5;entryY=0;entryDx=0;entryDy=0;fontSize=15;" edge="1" parent="1" source="2" target="4">
                    <mxGeometry relative="1" as="geometry"/>
                </mxCell>
                <mxCell id="6" style="edgeStyle=none;html=1;exitX=0;exitY=1;exitDx=0;exitDy=0;entryX=0.5;entryY=0;entryDx=0;entryDy=0;fontSize=15;" edge="1" parent="1" source="2" target="3">
                    <mxGeometry relative="1" as="geometry"/>
                </mxCell>
                <mxCell id="2" value="&lt;font style=&quot;font-size: 21px;&quot;&gt;APP&lt;/font&gt;" style="whiteSpace=wrap;html=1;" vertex="1" parent="1">
                    <mxGeometry x="300" y="90" width="120" height="60" as="geometry"/>
                </mxCell>
                <mxCell id="3" value="&lt;span data-metadata=&quot;&lt;!--(figmeta)eyJmaWxlS2V5IjoiMjZ0b3ZqQlZtV05ZUEhPYlM4b2pMWiIsInBhc3RlSUQiOjIwMjA2MDcwOTMsImRhdGFUeXBlIjoic2NlbmUifQo=(/figmeta)--&gt;&quot;&gt;&lt;/span&gt;&lt;span data-buffer=&quot;&lt;!--(figma)ZmlnLWtpd2keAAAAXDwAALW9e5xkSVXgH3Ezsx5d/Zr3k6eIiojzYhgQkXzcqszufE3ezKrpUSfJqrzVlXRWZpk3q3qadV1EREREREREVHRZRHQRFRERERERWURExBeyqOiiP3/+/Lmu67quu98TEfeR1T3s/rN8mI4TJ06ciDhx4sSJE5G3Xuk1wigaXAy7Vw5Cpa4/16o1+0G32Okq/tdsVfx+uVpsbvgBWd0L/E4m7xlqv1kBzgW1jWaxDpQPuhfqPkDBAP3AF15LhtZw7gfna+1+x6+3ilJzudnq1tYv9INqq1ev9HvtjU6xIvVXHNivtJqSX43zHX+94wdVUCeCst/0+6Db1f6DPb9zAeRaFtnx23VBnqzU1tdJT5XrNb/Z7Zc6tF4uBtK305m+nWv1OozDl56dCbodv9iwJeTPurwd8XXFR0cRQngIWEkTurizgzBBQVXpt5qmYWUyW51aV8agm9Nh2N4bRCFkZYq6piWIGq1NA+qt0WQ4mlzsHI6FptlqPux3WhSoVsWUCwc7W0+i0AelKq1yr8GoAHW52NwsBkDeRqfVawPk1jvFhtDlS61W3S82+6223yl2a60myMKmX+62OkBLMk7S5XrNsF3x6/VaOxBwtQMR027m9UTH3+jVi51+u1W/sGGYrNFUs+JXEHdKd7LrPyRdOhXUa2VBnA4uNEot0ZEztSaNNQ0WqdbK50VU1wXVYtvvb9W61b6re3251WzC03TwhrLoY6neKp8nd+NWrbJhdOsmeDVkpDc3/EqtCHBLtbZRrfOfFN8awMAO9jYH9hF2p16URm/fKgbVWr9Ly+Tu2Cx2asWS6f+dXQc8zgD9MvIg9/iYxGn2Exie0dcnBnuDg3BrNN/rho/O7RQ9PniwV+z4lCpqO2lqOtloGSXyuvASeaH3ZHNJttLakg7nryXYQrvYKdbrLCB0vNHvuHEuLaLr/rpgl/3mRr9SZAhF0/iK5FkqPcmsSma9ZrieMHCrXvFF1mtdlo//cKsmvTzZ7vgVfx21qPTbnVbZD0TBTiE3vy7lp2MF7Ac118czCarRq3drbYM82yg2e8V6v9Zs96Rv11X9h4pWg64vV/3NjgFvaFPNoW9sMWwLyixLz25u13vS/C3FTqe1FQ/zVpuLZXFb0Gs06Ev/XK9pZhzc7UaJ7gjavl+u9ku9EnMI4s5as+vLmmedtzrFDcE9rjQOJ8MGK026UwyCfrfKTGyIzcEqdhrG0ulKsXPeF9aeG6QoVE6WD6ujhCEhmy+36q0kVzBKaeosBax/A5kFR41KC4Umv2KrxNnVVFlPBK31bt/wILdWLXYqSc5YOL/j21V1yn+ojJzsyE9XzWyfCYrdXrLwz5pWAK6r9xBVK6h1pYnr24PRxGnvStBCt0EqNKpSY1poTboKRicoSY08sDiAgkJTxUKAyyU4iJzS52sNK+YCVu9cDWBpkyUkRm65ts9mFOwMxqGVPrtJx++WjeDXazJOjb6a1rpWb3P+7m6443qcr2EuOuwlRRYQharSabXTrF5vYbyYyWYFO9KTDnqlYvn8Iion67dsbPRSC42qoRygVa+N3STV9daWAehC1/YhQCPq/XKxLZqZT3MsqE7Z2PWCMK2EO9PZYD6aTqgTW29aZn6RK7BmuLXzfqptXj0cyHbQnY32ycV14N2v+m7mdfNwfzuc9SajeQTfTlGGqtq1h/x6AKDpNTuiUHrl6SSaz9IZXmbmwSspN0PSjaJsaB79cGLPBWX2Q4D8OhwrfVuj4DKGeimYz6aXwuJ4dHFChYSZwswzsQC61es60LPE5cEBGhmPh+Ea1dCJvfTsgha5yCByNus/2KvV2TQxdCDzTqfEhNktu4D4UD4MaIJayu4Fy6m1799NfiWTv4f8aiZ/L/kTmfx95Ncy+WeSP5nJ30/+VLnWKWdbP21He246Esk08AI6YFXJ3/RlBDoeuFeaTsfhYNI6CGMFyfeadqUiRqrJ1gWsg14J22xg7yGzgI2+GuFXp7PRi6aT+WBMdWcZM3OLLhspeOd6bLrrNdPDtPZmOJuPWHqCa7UpylQttbrdVgPIa0wPo7B8OIumM+TDtlDE9lGgyp1WwEqrdYC1f8GXpYfqkfNwGU1T7SJDwRaWUXHyeSw9SYGkXKsDLTXEokqVZaYYbxNoJZk/k13dZLFPZ43RbCYdSFaRmXVSbQAsEJaRHa0rKuxVBtGetSdemV0YlEoVXBubY9dDvt3cAKXOtX1JdbApideuiO+Y8x89mM7mx9dQDh8Fk87m5xaKihF4KKZ9HSOSJevVB1emh/ON2WhomeTtsspIPO2gZ1dZLq3THszn4WxCEVS1tlkh2Ghjq7WZz8P5tBNGoxfBOhGR6Y6RTNIPnUCeVOvODic7Tv28Si0QN0d4KlxedlMAHcyvjMMgdGNn6jpBy9nHLs4xiS6jXVZX8NNxNZpl2VhyXb/RZoM1Pno+ZoMw52Eiyav2G0Ad7xYYjsHOJTuNyZiqGOiHka7pgWajxJk0sKU2ek1zV0nXitQroWRiYoBzpkJ5ekiHZq7e0mPVQ+xucnLFXld2rnyGVcGwOncYzUe7V8g+Jpd2sez3MQX2qJCz+ZLf3bKOAVKCT2Bn0RhckJwVgtrDfr/bwsoYAS0gUDomudZo43STkxJorDTa02gkk8t+Asp1XBVLiL1njyeGbGsmtpm9hmNLsQ1audQWZ0Xkpg/qmNvxMWhIJixZmrWTvBJPHabA+l1yzCSvex0zcSU2ZNJcud4yHmseP7sfO93kC702/qzfN85+v9NrdmvmeLPEKqvUxLsxCrBco2uzQablszj+LH/DXRXXab0vVdmayOtGi+MtrimwZ2FbkKNWVVww4LwtwJkQsoLNGc99CSq8ZOMYc6I1I1yp4E6SrlJ23r8QVztBdrNlj0RrwHYcVTOXJ5M8K478KdtErDinbZZD3KbUPtOdDSZ2Su0Ib2fD5ZjQ7bNDsPWKLCBTrGSm2FTR65ygST1zaumvd1rJSSGXQcU7RT6Ds3tCIYNJNoWldi+oWpxjtpxiYl4rKcqyWk0RCacTcg62OMdpLcXEnE6mKMsJMcWIhNNp21EmEaKY2ZkFZMzv7ALWsrxuAZdwvd605LCO6Q1ZXMzzxizSsrwpi0o43ox5q5X7UkbuFnxHwhDFJlbPLMlbOSa08CZTzG3+IGIF2xk/TeSi3CvVyhQoYR1nNC59JuuJabIeOTVkiSVFeaFbwBRs3QXckrXqSX45aHfslrCygXqy5SaIVUeaIE5YyCwQ1rJdHWuLyO6WmI+Tx5BVjkigTwU7s+l4XBnNrCWh026NfYENAAkbA23rYobmYg3CIUZsHlLuP9RmL7Q2tQwHcapMTm/02IW0FxHNoTHgZaXHUzwjA3rl6RjXQ+dnalXpi/zjbfNPbsA/eeudUPlRcvoK/3gdUFCniMv8k9vjn7zhFMynB1TYEVi9QOkDZ6Uh8BqD+Wz0qNJL+3fdRV7v33U3ibd/1z0kuf27BZnfv1uQhf27BbnUHsywyLXJMKSed/FwNFSPZJiuKc8eFyg8GowPQ+roQ3N0uFN560ipOdgPlc7tDvZH4yvQ60j2agAPJvNoZzY6mJPLCe3mYDYaUOVwP5yNdtZHFw9niJbd2R2RFWrHfAJoIgsmIAhsmlmsGhwMdlDqhbqEGnAYxIiZvCaG4U6V12CwLpMrA8xywJASPDAw/hTqbOY3W7s8OIhQ5rQK688cLzVJP854bZ+jnnQ9B6Kf5MRFJ4goYAEUg90AXMrwb8dyz3YLF55/8eTxngBMfwIjZCYnoaqh02apaQ4FxsCvh4O5EfCf6zYnQIpU+Z62IXG98MrtQPA56Q2p6SBpwQURlwjQiCu73OpUmqQrxfWOlK9WmsYYnWj2GtKlNRxuCaSdZL+UIZ2q2PS0eOKkZziwSnq2WDTO/3Vlm17P6UfSGwKbv7GzaeIeN8nCJL052DKB21vKwZaktzI5gr+tXDYRvNsD61XdUa2Z0Oydzn95XKvTlP49XoRC+gT2N5nKJ1a65oz7pPV6Ucbx5MZGR7b3LwrQNdKncJqQ9r94HeeX9KlVm35J1bb7pV2b/7IHbfq0tk2/XE5IpE+vr5ck/xWttkmf0ema9Cvbtv5d7fNNkdPddcwH6T2k0s97O9265O8jlfwzi6XOJun9xdKm5J9FKv1+YNPyefYmHSJ9Tqm+JfPzVaRC91xSofvq4vmqjON55XPm5Pc15XWzEJ5fbpt8sdzrCF2JrV7yZYybpJV1y98neCf9WSe9h3SD9F7SKs1KezVS4X+uasdDaxvSn3q1dU70Bg/W+CfNGo4Eaetc+1kPkLbPtR8QPg+eaz/7LtLOufZd95EG9XMNqdclWCv0PXY1mZdNcW5It0ilHw81zjcEf6FZN27Zw83e+S7p17IBSL++jjQg/fpNBE76SDvoCr5PKvgXdM53JD/otKuSbnd6JZn3nQAHmHTYtf0Iu01zNtllmmT+Lm4SCiPd27Tlo0077hdunjf6cmmz0+2QjknvId0PAiyvUhNSyU9J7yU9IL2P9BtIn0k6I72fNCJ9FumcVOR0SPps0qMgwGYrdZlU+D1KKvyukAq/F5EKv39FKvy+kVT4/WtS4fdNpMLv35AKvxfrILhHGH6zLm+aHr5EAGH5LQIIz5cKIEy/VQDh+jIBhO23CSB8Xy6AMP52AYTzKwBMV79DAOH8SgGE83cKIJxfJYBw/i4BhPOrBRDO3y2AcH6NAML5ewQQzq8FMH3+XgGE8+sEEM7fJ4Bwfr0Awvn7BRDObxBAOP+AAML5jQII5x8UQDj/EMC9wvmHBRDObxJAOP+IAML5RwUQzv9WAOH8ZgGE878TQDi/RQDh/GMCCOe3AtwnnH9cAOH8NgGE808IIJx/UgDh/O8FEM5vF0A4/5QAwvkdAgjnnxZAOP8MwDOF888KIJzfKYBw/jkBhPO7BBDOPy+AcH63AML5FwQQzu8RQDj/ogDC+b0A9wvnXxJAOL9PAOH8ywII5/cLIJx/RQDh/AEBhPOvCiCcPyiAcP41AYTzhwCeJZx/XQDh/GEBhPNvCCCcPyKAcP4PAgjnjwognH9TAOH8MQGE828JIJw/DvCAcP5tAYTzJwQQzr8jgHD+pADC+XcFEM6fEkA4/54Awvn3BRDOfyCAcP5DAGOi/kgA4fxpAYTzHwsgnD8jgHD+jwII588KIJz/RADh/KcCCOc/E0A4f04fjwvhWs3ZrtV9Ssculic+ZWNwcCBOjvZ2Z9N9ccvmU/71SuPpttJ6+8o8jFRO24CU8nLcE+5JfiIeGf7XcDAfGNplldscDcOp8ryYJrq3NxsL0fpozLm3LN5kcfhCYhBKr8ylU/h50d5gOL0cAXp7o4t7nOD38PvwJIfhfDAaA+VDxhKJk4FHecQJPyTSBLw0D/dNaNIWLR+Ntjl77gi8Ym4MbLPuNll5J/7vNrmDxzQbMLZVtbo9E54TWiZ3wnRGeTebCTir9I4IQr1AeVPxMOfigOeORtFoG29LqzyJu+g5rQoRnnikdvUSvCfR7nS2r/bU8sjMxku1WjFQdw/3eSJdB7U6mIDkUFGTIsGctRhcPjxSpm1ZXUc+e6dxvTphMXvTw/GwLP1rDCYg6M/NsymnEyrTzbVIqgCc3DWyNZRuSl+u1akDGem6KcJaq9Ph/vSFozIttAk2I+NlfebIKMnLtLqewPDF0YQTjLS8NRrOGZi6YQFbDUWOoG/ckZZwYNVf59RN4pw2mKsKyqe8wqXwipoovQu2PprElZhdwVRGF0N6l+P0QM66tC9SeclsWcICNwfkYD6y4/RyA+7Ru4OLNKwFbIrU0ON45Zj4tG38hp29gbj54SyCQic501CtIkP2IoFbR+GMMGnYHTC/6jWezo1N7NSE0raZdS53xvQ+YlvRhYvjKwd7EfuJXhomFzQRu4le3ubYd+kbDqeyMN+k9VnLZpMOQEKPV3YZTCKdV2m9ujsYj7eJkq1TEKmJPrGHIs5o7FJp+ihcXqf1Gjmgv/P0yXkScOVUOnOntoI65fDhMJHv6fH0ogTnDUl3Wo7H3trdjcI5lkWt6jP7ozgil9S7bp8c/G3rr9f6+iHHpaNwWDed+HtP31CxiFTOJ+0wnbT0grS8VFos4QVpsZgWpFXYpS9Z4SxdLYtlN1J4LEhgxeEzElj9P5DAieOjXRvawdVN/xntyWqmD8rLbxPNHEZqyCHY2k93Ys7txXQcCApE/hLGLIK0UpR2msgAtiSGc6NoczCGFUZm39Y9z9JZVoWSE6fyVrB79nSIlC+bRclCkrILADkBktHnJVeMdmBFbhkzOZ2F9czlIFZxdzSL5olcpC06lM0vbcjkKW95Z7q/P2AIJbubpOGBbWVXEINmDDKBRgto/2rmg+GRs8dLV9ue5UqiHOxSM2IgyEsjr5i57HpOWzACR+7uqYTVQWYG3RjMmCQn6Wy3bJDFaJXUlEwznF+eQu7Gg3D2kf6LiPbwTzKqq+2CbMvcpiATLRMfqUe0Dq7sb0/Hjn1kMrTLbm3hmEkkDDxCJ7JRBPQ9XEc0bDZMXcwWrTQ7vuehCXA4AIfDyTEfWW2EE9nekJBra5rlrA+jcJ053xCXgnFcmZgAicYNGO3utibjKx2kfjQYG+pcxep5bX//cC6jM7uP5est8iXjrJdXjFg5nXAXmksoJzY1LmQhBOxEtD49PKgh/nhd6EFc5+1aaJBq7bGLjcBqj1lutgE6i3j/NxRBOH9sogCtFAlJY+BCAmCopbe6OxqH5+24IlMIC9wtN8bqAM+JOJawbDMvbq4inH1MmfPFCuMRXsfsikxodxocbkv8axsyQagXY9NYSgfTCcvStrR8ONkdy/Wc3LJkWa6Mol5cFKLiatV2uxzXbwwiFpadstxOjLVc9cHh9ngU7cFMGpbudqfdcLBfT7snjXjHG8nVcEpllbYYtehAMJdhp7omrFq7wWV6ivY4YlFRPKeFLixq0bX5bt7zf8SZhT8YB5kZiatY1vZBB+bR+HA3Sk/wR4wPZ0w9yzk3w/AdisOXT525AknizC1FB7NwMIRiOdqbXkbWuKGlEAkOZe1BvtIVL8+YvdpkV3xp096m0sNDuyyp7LXxyKZSUAmPRjvxNXEcfZbwhLnK1mUCRiaE5hkcAWkJXJJnZUrFTuzYsfZd5XJ5q2+OJPpYI2xLkuGcheI6+8VoGHptyHyMdkcYYDSXWpbnh9lkWsiQfbvtLHlXGKiV5M5RcQcRX1hogZMST3LxtUWOqDnjiCnzLpsQFxwipufGvtkzoZll14ESzs9FrIZshegzJpHe0EoyarnW4w7AXsXJdYh7GKKvYmDHkNQk9FSr9ONnS1eTF1E0tifRMs/bTtCGy8cRZYoqxwrVHHDgMDI0VKrQLG4S+TTBXcWNjHt3pYMtE271JO0TSTYEOXc1Yy4+8z6nGDkEwpnpFNMDRfwKDgIVdDZM2JcQXRu2/fa9/c37QHi2ZsCxh+UdcXaKDnd3ifqz7EfimJuusbJ28LPmshvM1TepXHR0UWyFcZeZfrIcMEWz/5CVQK51OBeXQbw6yjFTzAZbs2wc5JehWJ/Odli38j4F23MpAr3CplPcjqbjw3notl4M1U52UJ/S6oTr8eaGa1J5tfV+0/fdbUqxvlW8EADounEk5ckC5ngu47gf242XrzzscLJyc5PD/YA1zzxECmfLrXPOg5HFBrIK8DMuHmLZZi6HF0O/mMaVAzF4s4l6QK1uYM2Zf3OqoBGdsIq3jlwbuwTBZSwB8jbvbFcUNmbBI7L+AtYJdyMQsCudl4sCq4vywIeEW4VO67xgPPdiNeevr9uXOnlisK2OQAX3NGMJK4TFN/wy+5Rty1rZeAN2m1O8tQkBc8QgZc7pfSQYVyViLuJlT96TabJF7u4Ls4eeIyoQRmVlbhjCQ36lv1X1WYrVWr3Sb633bTHXGFym2kfDjJBlesGVSEWvONtJeoH3ixCLk4tIkdM+9jeT9UZc/c86sanOWZNfx6em7uFsRA/1cBQdjAdXjBqviW9jskZr6X97fMgB1bV2YDJIkmr4PZwOqXDJDrRtyjrheMCxYc9WyB8YpK2wT3yAtQTIOjJTDYiTXgnHIacMlDDfOBzPR9J6OFsfhePhpp0KJmiHpYDsUQadvRTkJpABis/XGEjYIqMf7jmEWFoSz5nTnLWeQPnYgBYS07qUcPMnwwPxoxlz6EDZs2gTz+cgnult7gFts3/PCkoqA7Ckx22pRdcz5HbhUQ0SSytiDoCknMvGWqXCPS6X01g4o7jE/WOUfY8Qv+awVRsj2zmaiUAKl3/CzqZLLqFmzrE0qCzN+PVSa8saClZP0clBO0+mMT0K3XY8HQ/Pm9nFbUb11xO19jK01RFRm9mVGsEiqkTTQ2yaEdZQhGXz5WOeDLtsOJ5yvBN9YfLp3SXUZWKr0d5u2tSYMqecciC71DOnxPzWaHgxZNUxevTC48Bh6tKkPxxxIJQB5OcjtG4+2D+oRdMH7ic8D2sM7AxC4cyghDgcFiXqktvBX4kzeSlAyMbo5Cq+/LoCIamtKhePpVaxI+LT5omCWZLYhkuOuFhvV+UqQ14DsJJ9IG1e+Lr39l7AjDBVAb4Dy5I90KlsqYcRINULBHYoOjIZ9SpPmR8gcA6csJi8v4ytqjk92SjOMw/2BlGolpRnAIu8/wA7Fl9Lv1DlMllL8Ky5dP+EMp6PRT0wsXIvSGpRzx5FbesJy6GARft2jdeIS34gPYb2fd441Q3T9xd7/D+DdAqjXuLp73fW45etBWZ9Lau7HWjbC0dRMN2dOyMRSBGNvkMTpppOegdDJsx15KfBrY/G45jmB8nbvTXG/AhCBOoyPqLI3D+YbGWh+78c23/gn9CM8hrG/y80Vw2ZonQn+Zzm7uHYbvB+b/pC3NzgEHVnYmehMSXGvgmnP2DlHjWm08l4RDxvfCVu4dPY7j2OlBJgtGNCOo8Q5XHozNBMwY/GBWIXUvSPxWjnMSQFb00KjLOfFvx4XCBOQ4p+W4zO9Af/xXaD8l/QkUEOQQoJ9yrqo25aBWcJ45LfzJRIhwX3sQzOdkqwv5XBSo8E9/GMc9keYAEi7sb0r+hr9rCUkNLLDxilQGk2wBygE39Ct+MsDhZzNL+yKVtbazZEEdRfe/pv4rk2m2c62e/R6kVwM9jFNfGvgJIK2SPoN2YLNuFvVeSbLDqxkhlde68miBYZ+kVFfbU+jM+ZcM828mZiw9jc3mMUfy4+yiImWdyfivNmmn9P/DDbi/Nmaf4+Eivfw6D+IKYLk315DVfXRrDLi5X+OeUiQq2EuxHTq1/BPp5BI8pIfdjT3+G5AcqA36LVN6RZawRkKiS2EiR4Oab+a2yJHFo5kdkCM4DvWmy6iLNwcSLxvwh11K/kGMcVQ3EWlg63mSxxO346Of0GcoTmkk7/o15Acap+v9b/ZEyscV7frNU0ztguHsQV6rK1qYL6FROPd47yTTFsiWsY38HF2eBgT+wv2/equvkYyhKeS7Dx85xVdctxnCU9P2cZFbndyb5B/1L1xGugbYVuUrKJ0kvoTz1NPekqpCXuCb7MZqJuVk+OYVu0KdlMrPFW9UWLGEu2xd4dB1PpWJqzxV8nEmqyzXC38WUxbIu+3rAzk67V0+KMLXvEaUbXYbnbVv/JSN7ErSYcB/f3p5O6nDEPOcAz3f9moRTv4dH54QCfOKV4MQsoIamMWHWhjIPtK0v1zVkqu6eJvLIkL8mSYFDkpgf0t2TRAV4IS+rhcDal6KXZouahfVhlH3UdqG+9RqHTATXjkunqUmKQxpNQc/Vt2eKyPLo64hIrg0u2rEfVt2t2WyxQzHzMzbyhTNb9R6AYMB4b+b5dfYBr0Al24GIb7x95GkZa/XaMriMf8r+Dw/xonamXQ+Z/ZOczvWONOdfms4so4z682lN/5sks9XDc6uY4G/djmbvt+fQiZ51ha9LqruO+IalIfaP+zQRPpDZb8DGdXCuoV+W4ZxbTILxek1OfTBVHUBE2Vr/UNF0aDUdpo99ncF17PyKo56rXM9CoOhh2uvUuZQz1zZnT9ZIDrc4+h+jbJWN5li1k0V+V3o+uONAWPJeaSVRtNcnYwq+OsCocKdYktaivIUSRXJ5yweUytvD5Q9QNs8XsTriuOZXJWoLiPp4sfTsrqUVVBKxFLRvPoOz6BYQlWhecca1e6alfymzQLTsWhnXDVUhbdQNLkT2mcv2Z5i1JNTLug7vDXFW3Z/OWpGlRxnipJ6rHZbKW4EGLQffVk9Xjk4wt7Ni8+ZnQU9QT0pwtDnbxKVJX46lp1pY/bCtYlFB8SRZhab42NE5NhBOiv9zBtqSfCqbsIir3HENZwl1pdyOc7odzHOjPan1vFmFpLtqWY6RQ3beIsnR7ciXE6kQtpwf1cBdjmEodEX+3zhJ0RNDHKF6TUpSm8/l0/xpcvuc4zbUYvTYlSktGshEeoOwsUHTue4/TdKfs+JSmJK/Tsrnj5bImI0w7o0b8ZqV9nxz7itvH4mov8ban4lswvqrxI8D9sMPZ3iboNzm0DDFB/ohDmjEl2B91WCYXBx1FlyXzFoekKau0DPvHHM42laDf6tDSVIL8cYc0TSXYtzlsYObXorGaWaH8hLfHxmQ3/kQmc/V4dee18FY12pH8zESMjCopLLfL2MIXmryMC7tOHy5l85ZkbFDtwVB2CEj2s3lLQoOgyswEpscsUrWuHjXIc4f2ZztVdcXkbWmFCLLJVpNuO4Y08Nu2CBNtfJa04BO2gGABXts59Ts2ax0P8p+0+TabGLt7MHqR1Dqn/nwBbdqvEd6I6NJf2KJsx21RRf0nV7Q3Gg9d1Y3ZVN6af96WuG6ZKQT7lwtYqwSg/8qiDRvDPwjHuwjnry0+3qapourqOzkdgezgdM6i8GGZ+keZ9O+yaPM7oqb6VZtzfXYzRUsf9PZHEwYdqn/MqV+TrTnOfGihhukFOsJZYq7a6ve44wom6PbGYJ+1NJjJAvt9DwVylzlyvjW++HfIgrT3KoEEKpOCV6YFJdq5mNo5TN936pSV8QA+qNX3Z3BdanFJ9IYMqpLeF/2ADgfJrzMeUm/MULVxAcLZURiYmCyd/jnOCiY+RqGh76h3ZVDyc6g19fNpXwlbyeXQR7R6t2axxHcrXYpUV/1ipqkugafpoczye7OUjQEZ/jM26Zc0mbgkM4L3SUSFoK7Js8syteOBXBm8P9NAYN4uBSjZvGjeO4mR+a20q7WUdaT+xdN/mhaZqUBCJnamXp5T/03bOK1xoP9G64+6vATn8HFsMPdvtf6jWDZymoeH+get/i7F+ZywwfznFFNnpOYgrv5FEyNN8KY2Wy/78H9JsdS3uH9IcWW0jskyXY3UP2r9P9IycbSSAOg/a/U/NcfoY99/OKn+f4vtMfNu2a+q/4qEzbHhGpf1P6np7GMWb7LMECnDVp/wJqjzsScEb9MIagc8txg7l+psV4cS8/4LT32LN8bnRAWPRuFlQ/v6nHqdZzrnXEkcVK3eELvAZYbOgouSfeUH8CiH4bSNMmyzaNRrPfWTsk73Dwy71+XUv/cum6ioPFXgtIwPHao3euq7M+iy/d3wMgdoi6zYoXKxPp+F8c+K3+Cp73Hl5cEOx5MiDCNkrl7m0a4tqU0ODufJzcanPfWDrkB2ZuL4rJ0fcpjq9AjDYzTh9Z76txiQLYMPMNeXRMAM798hC9Fpxuu6wVWZJTPVIfm8Y9cI54OhjPkzHh2yOP9IhKX+0NPf5jBtnAE2hCuNcHJobfTnPP3tnpnQzvRybEgj9XZPvdOiMUGH+5OFkp+zJVSw6hOpn/HUuyzSkm/J5mLQP0/MjmXHKc+fHO6vi4py7Pm8p/67XeoUVOh2XPBXnvpmIiLYWObjhAHs5vi8gfn18ASlY9Sn05wtLsn0W5vpT6QfYk3OXIW0xOXQBP5ibWrZ28frrsZacj9ibdZYYTPzoIbFcusixpLV90eMpz4igeQ2EpezxY25LEDszyXsDAR3ZPOWpLWNliz83v6p6inHcZb0IWYfRcn6KfgvX3w11pJf4Mw5JGBrfqBOe+oZ6unHUJbwBVYIAWddcBGhLv0ViyhLxzIiKGImIZIN8jnqGYsYS7bNwsTmS5AyUp/W+iszeUuxY59KiQ4Qr1V3pVlbPtwVO9PgIEXUwcwhUxVdhbTELFfT9nSdOdBKzrdx1hIc2bGUkLrVi7g+1JcleoW9+YzWr9BIzuimaAFlr9KR2SDTH/s9rH4YoyZOd7A/nc73EA2T+iZHxxE74rZpW71F2xa7IpyIy2kBYPhTjpCJYp52TBwfmaqvI5a7k+LoPUx+lrufR4mFivszCyeVkRg9eWzxTsclsTif14RgB+4q9K+0+tXYbNtooKDrZgY2ndEu4ElMqEuAhqzZHz6p1a+ZWN/42MONj2r1obhA9sE5jGMCevnrcVkq3ZpIkZEIwce0+vDVFMX0ecQntPoNQ4BymIuuR9TvGlkM2DJn3BWIHN11hrj2RfZGMwGyRXzaeoJleNIkcpP5OKf+OGUgtw3C4TEYfEZfCq8Qubl4Ecm+MscR8WiKY+OLCW3vzQjtIe8/09JTMfrEB/ZK4e50hgNEYEgG+Ij+f1xUus6uRphc6/9Xz5luCfSI5NXfeOr/Y0Lo6F6LmDXrlI6ykU6xi0S9gOnIt7IpRvPUI325F+5vh0PD4LU5IkLEsPYa4XBkX7B+Okc0CKVgnmWW6Z7TpDd66nu9aLR/MObgEL90ag8m4ViG+0ZvsMNITAim2m3UZXn8Uw7jLpGeDhZH/XNO/VSGqD7YJoa7pt7hHQkJGNP8X+cw8jGmjNU53Gdk4tUdcD5UP5uUyWGpdCVgo6LkLZ56b1IiOAoj9Tc5/e4sFrf43Vr9QoLqhJxV0WWjjJ/NqfckJdIVc0MRqb/NqV9M8F1medLEVNDxzyTYYGd6AOXf5/SfsNUQz76CijzKwRGfRIzidHc3QISHkXT1dXn1lx7+ymQ4iHVd0O/y1K87dLzzCvq9HsH7/RGhaCG0XNS/5NRvsL1n7uyYgI94TCH+Ar78yz31H+gInj7b867cQLw0r37Xs4rCdBqdqg1Z7epT3o4YgY4NNKbW6OV5dvmZxdoDz5r6I2843SHmSWgzy/tlefXH8CYijxSyl82Reik+sReNWX5F2B6F3b1wP6yPts+zGNfwFER+xfl8NtomYkAoMK/+3NuEOvW/vNyAHeCALEPU+wxxUJ/KL4mVh9toBp5rCFYaoN9qVV4dcb+r2sVeIDe+utvakG+lCL4fI72G/RRErtd0UN6RSbafYAvmK37rrc6WvYxeMvlSsXzeIZYNwryCWMFHwSMyfpR1w7wlBMRBecTuz3FMY1LETKSI7M81BjNzcWcLUVZGlgcXZKpYbGEUtWw1m1+y7VacXV7wMT0cXZYbRxy59cV2GWsG6GWegYieeZppnY2YhB/ytF4s9Cm5AqtLZtbSRymbMn2of8XpasrjR+FxrNSnCCY58eftvSz9OcrQyMpPVpSleLOncpsLGHVnoxYENfMDZFVudeQzWJ1ipdYLyGv5NNxGRz6IKN/nsFReiqw1K755pJYLzHum/lb8WZh80GVKM7UKFtEuVuSLMPE7Qfl2YAZrX70sLyLjFy8ri+jkSczqZi2oleqiXCfkMZX5ah2ZtS1u4+VHwSeTj9WcSj6HJ02ZTvSPj/n0Io1p/SqiMymR7ce1eZ29iuza7K4rtToVENJgIsLrHdLVTPA3OLxpMcHe6LC2gQR9k/kASrPblx/F+51uzbz7uNmKstzqyRuizCzd0qg1+7Hcbm0UH0oyt0lJIsjbpSjJ3RGrlGwSyQ6SKu9bM8qbJfEpR4MTHQXLqmJDSdRYqEE9orwykN0FqJjh/ZPwXijzKRCmLLY5m/+++oec8HMrrCtcORVhbzkDZbeLlOU7YPmYdD5Ewn40pFfpo6qrWIurAHmG7TuvYutofAhSlhFIrJdXNDtX2zUAWYbVu2F1VblPYcrmwBVIzyxpjcOk2Zfl6Y55Oavib2I6ZtltMm3sfUljmXKfwrQxQar3e3FLMR3mejIwO7ueS8PvgYJTGaa1yYyZec3NCTlxTmOP/YCn8kfTOTEgMh/0VGH/MBrtmNyHPLVkWXcTck/PBa6Hk4sESTF9lmAz5uDhHc7xd7DPaWkjYYkdn7IRV6RzEZ2ad+HWiCBF1TI38dz2K68wob/WXsJqGO5SD5180XR/exSuu19uNe1QczvZ6s2k4kcYXvbZYKF8bTqVT+2ZytozLe+KO7UKJrcfmC+i9ukGs1lrVv1OrduXt6X9QL6VYQtyCy2kTwoYezwEtzA+zsQsEFdk1Ct2cid2XAQJUKjBeDOukWM7TK9f11SeG/60ek3qFsy0f4LZy458+WAmr1Fwhg2viBtMtbLQvMGztcnB2sLYBPHTbeY12r7KtTmUaKFyV9qUF+jmiwNGhCQ6fv+NuLB+zbLfl0fZIBZrt4/1DT1hGUwuuuya1iPnqMsvFBz2U572ahn0IhN4zKVPv+8pOcEgqi9A3BVKZqPVaLeadnNV9BcXSj42Kf3V1jvx5djDvmo/7eS+EaXM43hSLcPu+xXUwr7A9IpdbH7Vr6AhkMg3sYK+/SazFLOB99gRpKVeFu8eLC4GzVTOfdhLdTu9ZrnY9QG1+Zapezno2WqpIVh4hGvhTU51aI5BudhX06pabsvkZDoIliSRMCua5WK5a38hoQJfXJGumdZ0fivsdE4cOYPsB36dfdiUOqcUqEBXRVLO2cs2xtUFTvt0JidAVNvDqTQAXZ+jkThygG6I2XrSSeWtHjiUG022zggKM4zPsn5GO4Zn3nKP1J96uhCZpkNumgVHKSuna98EsAaWuf3cBbmCyWET4cZpus9WwpRotSq74GL8Vp3tXmj7QblTMx/1UOW2TJp237rwyoH4Arlzxc1iQpOXkyZp4VxgZLxkHL0HBbXcvtCtGuTKhnjnq4FBnwi2asaXWzvfkoejQCc7vUAwp0pF89WW05wU5KttZiGeqYnDTNzGzwQbMW72DWlcWEFr4kIsPYmxjkWiIfI1ucd8+sZkHTgkcrLmTVat18V61Dm1C2Pl5ceAaB7ctg/HGCYzKX+LGRxxNMOTEOnHb6Lk/W7YPOSIPyOXL6UVVN44XWalqF4zzejEM2av7dftx1Vytg8T65x7q2NAw+YfMAzXaJcdSl4hJ0fIwZgTivpHT60OF1H/hDItokSMWId/Zs8ZTi9POOziIckJCrNcUAUUL0IA4WTnSopdEpkg29m8ZUNjBbUsb1Nnkel0a7dOOYq2UrHnosXR6MUOSJ+0lJoBqoLRAGSgnIximehEajHGM07Jg72WsSq5ql+kGCgfXEsaKv6OoqqbD6/ojvl+kXeczLPFyhbrxWInLcxyw37+EBLlP5TA6e+shDKOlnmFkexxmtmi8os5a9mCSL0spxd/IRAxsXh68mP9fYid5UPAhYSzb7h4y6O0hS5oLuhQjQS1cBOHriYFmYu4HHtMN42S4VNdFSQrELxEA6SCuD0EG6m3tC+n/ipxWFDkl5O+bTpvvGt8N+aagb+LHbk8nRAggclgXDS9kO1y4CCEwOnYEZijaMKvaEiUd3vaDfF/WI+IM8V1IeXG1Esx2VEu3JfmUxrpvR1QZpSBuaM5du8ov22SOznKDZuO/DIoxthb1BUJPXBqNzEYlD5xd7bV6tUx2RNpg2zqXN1lLm3XbH/XuTKTcrWqT7J+ZgNL4Fbctjo1NzKOJW5EcnoRtyk2Tf1pTp0xE+aE+TpPnYWda75D63Mb94l7zO0JdnHSm41rk2Z4mZMIqOsXWauX5NQNiyizupm9G01jwaXRQXcqIka+NyWo0pXivnG0V9XNiNDOOeHVnL4lyaY68tKcvvVYV60UMn297RhBLVb1ozBx1yRIenuiVAH9ltuPtrlYJSzidl/Clpn3x+nvWnAz3CqpcLm5E2KkzvsX4t9IYM3PN3EiOCM3CW3U68YG6YdKrYf6+GXAXju4jyTH9tctV+V8TS5/Pl17Jrwjm3KkChq1NljX1itYDlU6bV/0ed6h+XWIeanLhHsNRkcfrcWjqezXklvtC/1KT2xT7HdZ4sQe7dt8OJTL49oQvl6CKl1JkLldQo3njTuaj2xDr86pgs82ZyPZ3inXq2i20zOQNx/NURLqzuOPmdiC/GW5TGT2C3vmthFoKRRGXcZI+XJCX9vHBlYHkfxIbWWXFYR+ZHHiPB2ht3J1coJLr4sjFEd2GvJriDIzlSdNC5vWlpohnUIH3LWylzuMByrnQPQicGE7QeHTQ7gojjozwapN7rm9lUMzNh0PWhyLuGu5xa7krzm+wjXGt7RIueXkdlxAsRRXNumOXIngsuwMJkeDSG4dQvcUjE3ggFunses2y8Ez+UooS8fEQG2lDatX+YZ8g1tY2Vjm05W25YZpfbozMOPZVl4GHbCNse7sJyyGxzmWx1yFKy1xAE7GB2btUT84tp7NowPo3WVYYu68LlPMssDhPWIxSEza/A4cyLWg96bz6GA6d1kv4sTk4Hj9JpXtvBWmNueovhADZtQaj1psXqYTV5Z31UoY2wMOgPMa0VMtGzbmCOphIHs6S3ebLTXYIUAsJxmac61H6s05vM7EiiUeB8s5jX6rjs+h3gTQdVfeM+L5tam9TTyhzEUHTry3PGXnMo29hUjWJLycZLyr+liRPuaA4tGAYSyjqGopa5NmePnYEBjUMOncW3OcOOLD6Vw2ALlGE67LtRRNXMV1rhBJzrSijzcbdy9Y4EPvophPBp03P/pSP4MJkuVethrq5aJF9XMK6ybJvGhuoloubzzsIK5xrDZ2eIhL8gXrL8q+bbqkcvIRwxrW1sxYkUCrBTlyNhq1rs14i1UxrOYCnD4cGC4MTN4yXUT28nYUU+p+40cmF4gQiarJr11YntGCZPR4EM1j5bDc1duY/KvRAWy4zHpnDgOdYZ9HPVl0Cf/c9qK+xCpb4wgin6DxIkOfLNJEKvaHa2jk1U1Lj67R0SDpkWPqOkEIEx95oZPGdhDPS60Q1zIxt3WRpWWJvi5RKZFXpN6V08uUEW2wP9Ul3MK0YmwROIYRm9e1eW9TXOE0KCH+qbh73NtzoK7JNqCr3HXPt8PBnCllnfoSdTEBFFUiZJ7kdI+Ng0alQ96dES3TZ8SJEUyY0lPPeSEEBeWU/gKWoth361wWxGgb4/4GVt0+/eRKOKeWE6Xlvnpluk1DR4xTLevVYciGEjYtzxOsWZaxscBcMuX0mhVxbHUj9aacfClq0UZylZTTp2hqRm/X1GkzZzFN1S5YVsKZBXz7GnaS6o+Iy+lIYvYVkSym77oDcqnSROo9OX39TmaW3ourebQwH+/Dy2R5bs2IkiC7m+S7b+s4fAGzjRJpdXPGdMQmiBsAvMw5E+xMxttz6lbJBokU35FTtyWTUjTHm4CJun2Xu9eoNelC7OpqdcdeMv/vz6k7AyRMqGFwsPfgYWgC3pFzM8VqIADcywOWKYtGEK5LyYg8vT1mAk3owi0nFMQ21gmtHCGyOmG9DemdC3CvjKL2gJkSRdJz8J1wf0AUdnLRxqmZEnwj8CabmwPJpC6rPA2VxLEruBj3Mod75rODwiDPYQC2CzVj2T8wlZcjUD35GAxuWSMNkrME0y5QQWYOIhqXCkCo9hfmzN4TzKcHOFuwSHbPWXO6j2dnx+8tLJ9RVJYpJsYiNTg0uhq2Q4u0k5TLxzAxLAVIS7PpYLhDp7h+WKDeWZT7h6kxp68z9REM5kHcjvo4Z+aDWOHbWbS9kVAfZbU2YIwslPcEoRKDkG3KQ+8NYC5nnVao13g6jyyd2YjUB3K6YPRDvUTrJYFKg4glZq3w4yVcPxi7xb482NmhAZVXK5FEbIIkWLoa57vSkeepE3G+PKXfE4t+vlozv4WnUwV10oBOHzlymux6cho4bRtuD66MESSIM9HCKpA7oQ/m9NnM0BKF/1BOXbcLp03rlTOM6w33GmrEssHKXmkdzqPRMPQnO2MMFSdiMe3M9A2GsI1QMcSPqBvRA07xmIExO8K4NxlOgzliVZ/M6ZsNqhNmULdsx7MeqU9wvpyFO3bFB+E3HIbok4vfLavbTDslHLOdvcCce9bpsB367abM58BK6FHk9gpP3XEwJSx2ZbJTNGpDMFHdmfyklEuV0HiW8gGwx+FGza/IW6GavSqp0yVG8ITKaHe3vHcoJ721jNSw6No6B0vJByyaFKMobBjGTzGiyFvYzXfB5mqRscVMFC0s7Qj3qGh+nYNMu3tIT1A0sbxN4EHEjy5UR1jv2c7eFZrQKwdX41avRRyP78TBtfFrMr5YXbjyYwjxCGFpTaCoOGN0cuDGhO1fsiVpT8jy2wK1TQvNRQ6Fg2thlzrxIyszU8pzf+mg0icxf/hFxX8dTCekFVFSj/MwcNWeyPQsLjR8/hCrkI19GKRakdskv9iEmVqvt4pdUh105W8OAHnFes387UR73wAg33Dp+IH7O2qFhrktWcre2i3HjXRC+2QqbWzpCzeWtGG5FrJcl2KuxYkNirOLPMYl2prydpkxl8MJJRQ6wJnCFTfOisW/QBXCRw9mmB5036L+AvO3766+1F+Jv+JeP1nMO4kQ+0mVJN6lrpN3G8nNjftjVDYrf4lG/s6I/WstNmxubpPcX8ar1GQmgfL+g71iXSRdaLa42ZIcmSXusuRP7RmRLSeZPlc/McnKRkf+aGbHFJBfzeazhCfsB+LXjIhP0grJKSv82rr05jS1mvavEZ2hv/0Gd+n9eqt13lzOnU2Hjp6FSSaRw+fwk1N0cXbxUIIzJlaW6F0jlq4JITFT9h4DmlQ3ocFzMPhIfZ5Ya1wgeoSPb0okSqiHIIxifYbqtLuobZ9l74urBtzYscioPRK7oyfW4rDXL1z0JvTCZFPaIe6bPBf4u2N9sQQ+peI+7cMfTYX5UYZmYWTm7Z9MhNxmE+7yZb7NNa4JxtlrFc5ei09oPPNQJX2TktswqyMvXORiXGgK5uNEJktuKTB/NtTllk0DLrPChLfM55nMrRrWfz54tE0IeFcelHA/6csXuRSq0rF/6VKPWtKAZ6/tuCTHDuNPuglik9VyryYvOFU9vrAodriIrUsjWv5Gm10KXrO4SZIruo+b5avyyelC9R7+Xarey7/L1fv4d6Uqn5lerd7PvyeqciyR0a4ltyUn11tcoAh0inXH+goATwvNmapgz2KeSK5buGy53tyY39CTf29s+M0e6U11+e7+zRXB3VLp8u+tFRnxbeu1jZ7hcTtQudh2A7ijYS967mTRkjxOXi483m/w7xNEqMaEPTFoMC0AT5JePZlLFuHzRQ/yz1Mq61L7i4ulknTzqe6u8ks60vKXdmQAX+beQzxN/ggT6ZfLn3clfTqrkeQrAvtHXZ9x3v7FBUwNyV2BEdDdMph7BHGvDO4+9+cFnlkyf13g/lJFZuZZQdvYiAdMF569ZZLntGvlrh3wVwWtXsd8E+e5tYaM56s5KMoIn1cvlsyf5/ua+C+VPr/U63aNXIr2EhqoJP13l12odzeevAqwlaEvuljEQAGvt3pdy2uDEDNWy8xktQGNdEv+Gl+9Yr8leK7ub9jL/vNiRzvyRFi9IFa3pg1b31ds29ixberxpaL85UugMtGMdt1n2mlaZF5xq63WXBcGvhvkupvgDTRVPnln+VQ5KVuoFvjFjvljHOey9/OnUnV/AjtYr9FMdPWLCG+bEIup/5RKTV7NtUwfnlpJP4T3JbGgni41sceAX2En4BlOnHdJijZJP+/GGZBe3IMNl1aficZnv6/4rI75054PkMSMnw0svE2vntOVNxIAz+uyHZeMbhWT6dTlql8+z20AsCefaSv7RqNz3ICLRuXpdM/1pBDDmTpLMU4MmIh3OZn9lXiebZurMcUJLum5iLDYNfMNJ4FOB+1aM+nXGXpNch0JSmyU8XrRJtvqDd2O70urwDcy36WWxd8kIyC9WeRnUbdIB0lvldS2eZvpSSys22lCyAHvELakd0rqWD1OpMYODlgqcnsidOfrLZmteqPYebBnajTsgxMg9KxhxtMy1JVa0RK3E+hBq1i2eyfttQvQ2QUT9sTUEj3JTcmTK6w8h/tiv9GuYlulxS9d903k7suwX3ZhP43l43fMH7758lozoBu21lfGq+1e0WfzIoLM/UFsz74KG8Pk2BcUz8XSENKNs19NTRH318j4SJ8fe6cd0TS02Pw90SDO3EOmG2fuJdOLM/eR2YwzzyRjVFUy95N5SDKmjxcSy/+w7CF26r423WG+TtavW9pkv16mMfkj1Y+wi9o/jt1vHHsizw1/NCzL75zMF4jM57xMYMN6IiEbvGz/L8nrhSIfPBu/+VqubPu7gucYZsKXjSlngBFhg+OHtFxZXNC2ew/PfYL9BqZKv4FJRlcI4Ij3tEicwwwWzZ+OvManM8l55Wu+z1c5ZyGVeVjbTf8kmzaAYKQEhFfEvCav7FNXO7/gamfejeE0HXO2RxMHF3BRstzEHTKOmTIv2NwxAFVjpgF0fCDwamb6cldVxsmaS/1X5sXHkiZekT/WY/OriXTKXsOUXVXuU8i8eYMYyRgcv1fBr3rsRxgxeTzNe9ly9Wrv6hqZDryWDvwvUw0AAIWYCXSU1RXH3/fNQiAJoAUnKEFAQUCYAQ9gCplvAJmxeERprUuVQbAEcAlRnCD1SAiBgDCjuIAVLJrOsFWRAyoUZgIFZRE4CDMssjSAEXSGoB7bihRc+rtvguT0eFqP33l37rvL/27vvWAYprKpvDMvVs5ulT/LUKP50i1v6h8qm/zIkHtK773jdyN+dedDdxWVPXL7/eoXqo0y2qprjEJltxtKmcpuOIaW/b68tGRiSDmNnGlKqeYqTxb+00trtdFUylDaj+qk7KZjxJjxJR37/C/5XwjZynhKFE2t2FkUh00MlUyaOOaxjndOfOwPHW8ZM3HymCeVU/1/M88bALC1FksGEPIdvy2ZElJtZ7DdEUzdkKtU3bV5Nbxk7MPlpUr/6NX4o4dxV2lZWWjCwyW3jJk0VtlnKfUCypUO7M4IuArN6rkvrrJNKAiG7MJuVqXUSYdy5vE/AWgRm5ItBbdiVGiYMgyzqv/xW5ruGM6KguBWEmXO6D9qetMdU3b6ys7MFePymu7YGnds5sz+He5rumN3Tu0df0YZdnPm+wdnN91xOCsibnQc5swRpfub7jidz0xOfq8Mpznz+Kmvm+40c1b0jvdURjOzuv9HhU13cpwVS8JTlJFjVn/X/famO80l0uuU0dysfv90WdOdFs6po0JzlNGCvE2f1XQnV+IZpJobhs7/pWIoc1oo2c/W5sCM+h3nbT3HFe279aqKiw01tlbOYXblSDdTeVRCymtXzVSOUvlGy2k0aKs8pbNMPiVzkiPJhsQtEUosglrwCRI1zag0jOmGqqKshpppqGpDMRCzDfWsoeYYaqkx7bWF7cxdRh+127DvMdRHhjqBoKn+aBpOA9d0Eq2Ye6lBsj2JiSLdlhCb87O92UZdLZxCs4O6VnU1BH22dW0VixYuZK4MdYNqr1qqa6asmTShi3Kb1Ug4c192MBPqX1bK39xnC7i+tiLuq3xK/R1Goc+WSG+3gqHrfYn0Mr3awKGJWLjCKk92FJWgFo2Fb7OUcvlsBcEidlr7ZI2nc7KMlN/0eeJDrUT6gmUbFfo1jK+RKrE88TOWLRZ+2ioInrICrjnYOGnZ4un57B7jewPmEcuMuLdameheC/+H0N2NXprdD8TYRXRrYTh8Efdqy+aJ54N/CeJXsr5k2TJRF0QlDJevPDk8y4iFWxJHKwKLe0HYzBcM9fGWJ7/Cf2UxQSWx7q8Nhpbq1ZbyP6WJiHsAMTxUbIu4L3jj6c7egGutN5F+xwuw0d5YuIVFcNgZbpkBVxdUcFcQ7IarLsD2WSJBuPfg5iTiTyOxzWsLhuYRw0qMLdUraa/VRDC0l3rs8uKungjTuDqLnVYSw7cY60FQ3wLojixDqccR/5KNKgsbktDn2D3AxnyLoLZRkEUw1yBVIwirIVZKynrjbj0eznuV2ieMF7yZ6OcwXvCm/M18mlEQlLQdYr3OB6CWqHhI6DCs9xeJKsSLqcEKvZKQjzSRSJ/BJRJK2cmyh8bIQw0bnngbX8pf4Au42rI299GP2T5Uf7YpI+J+CTCMqhCZaK7PpETE20iUJzOWKa0lhE1gBEPKNyr0BDE6feQ4AiNfw5EVwFs1EXB9nJWIuM8QgcLzP7UN/JzTBIlSiCmaJpemRTSebgtyaasueiWUIk0oNZSUGDIFIzDUQKCyJiS3I9gFfSLd9zIRca+TwvRFKUXqeyF7wqL8XRA5S7au1isMMX0Wa05fJnpMmvx7wO+mub4n2+9YZpbAasq/4zKRiW6waNUdxLUP5Q24OC7+3kTkLD/m65W8z9REyl9GwJ+K+bshjuHCz7dH0tkP/b/B7IfaSssUAi/ZYrAq9bYu0SJc9a1FvkQTKf+N6GwrxuIn9Ookrydew3pBxmOQN+K2MDKIBporgzyIOVlL0DUwDgkIUTkHqhsBYfdpo5IJ8SIradmiCU/8OCsSSn1He58DqpOuwgZdSWutBXNLGHgRQtyKRCMOURFgx7NIxahAFy+yKqMguAiYNV4AvKuJWHgrsge9pPYghAOIdczYTYL5ND8epC6nYeBPiJR/KV8d1UhINQ6CJsWu2KDYYnRU6At8LdIr1ajURCb6YFZC8IpKebIXTGyUJwsxuBRGIXbwIoS4FQmNQ1QEWNYGSMWoQBcvsqrZpjLkENfzkyUapKyni5sQP23l+pQRcNVxIPXy0VkPkL9GQqnrJagHwG+ndmP50nI8TaQiO5Gfiv+NwphFmt+BMU+vHE8LNBELLwLyOjnz3iDKOE0RxVatl+FfiefwQKwvZ2fAgFj4dVkThLsAAHUJT/xZcZdguMcBRHE8D5a1mCO2PcTm4mDIgf8SL/NYJ92F/zoO0XyZx2w0ahaJkG4uTy6VsP+rrTWBUx9HS1/xniXkWCD8gZpgoO5gS04OuRQ4H8qT8wg/n5ZbrVfc79FELFxPtJyfEfd5gjOYapMGbZD2z2H3AN5zGPE1FuHnsMt+JnoEbiMRcL0lR/sR/OzUnyd+VJTj/GjgW8zXIDfKXE3EwpNxw0QXBO+jqY6R8gCM3dIyEmktUtnQ1RZesBIsnrJRS9V1Qn4i2MluscrLWSnC7uSjQDvIUSfwv87EdpFwSxmoHhyapXRcnywj4CrSEuVJLgNRyUQHS4TYHyyPgvaaKAj2Bg8S8joQFVm1DSHEqEhoL6IibsWGXs9wBMXTf0KcIyjlH6+JTPRGgG8uRv8k3TYR8LS/Oi+jPwiUxezKyTNH0iiM92DUeEeFDsooniSwc1jvwXxxwBQEx+o6BlwL9YpEtsLyLoqF9YtJBt0BbLl2L8goKiqcQd+B2l4pRQvy8B7gZH1eLi0hJlvM2lEQNhLyZOFYPwGaJXKOnMDPBhJwCMYuwSq36VGgbcLSKSn5Kna+RGqhXmFUaYLnCZL1co0NBtrHwHKzbhMk7cn1u+i35wp8XZBIRiuyOxF3AP3e7HQQd0OJ4CtqNh6VbTK/1ZRnMcO0WK8MwUpNyJ0DFnlEbcfvZhh78XBKJA5j0I5+HcY7WDS09HquQHVQ1lpa5CISj8vB2kC7JotT/v3YSA/kdEhgpG/tpfKqf1PrgMvDzF20TE/8Sk0Q4hVkXi7JPD7qE3HLWLWBaeChnbwDpJwdYH5GEnivSkYDruuo4Fa9wliiiZQ/DJhr5FYZSxKuRCVADmxy73SH+JxUd8dWXO7n7sCMEHeAdN8v6RoLzPZIhNmg1xLpJRDraa+teiU7hzQRcQuO3XJCylV3ggYw8GSKjRzeFG2xkQf83sK4ghhuR00eso/LGeYhyjIZ5p6IyKu6K7othHEtuhvIfVuartRL2Lm8hZLFAZd+J8iL9lOC6lzLX4R6xfp8TRQERxJHS7kyWoMsBsJd2LlBTvnxjMVUvIyHGc8yypPfEPIuXoWtpfmvAF0XsIwkMcysPDEYMWBL2Ey1UvWayEQvEliRZLsFmZYnkSDtKSfDtfy4nq8rGwUi0RPxPHaz1Vbr+QslE32UPuIhHgv314T0UWOnbAHdUVpnHmuVdOpAUO4hBlkL5fgcSKcNB2EVzEel/ZbBqKZipxi753UbkYtXiPRmUL4m4xckbTUkpgqpqNh4jV2519+iWZbLHRCH+AtS76PyttiQA3oNzJ2kMSHV2kmmarM7nvgBzS1PfiLTtoqdL9Gdr1ckntAEfzsgWS+HyE0Qh4DcFakP5XaoBPt+0V0C9i/YOUNzfSeMAlA5eeUEsM6JpFQIRPnk7mW9wliiCU98HWuuj2B2EhnPbHWU6DjmYmF5Cv8A9m/4GiTcH/F7GMg/orJBRlcYXAex8K7LhCf+qpdD5ENNEMUHaAfp6PUo5sqBu4qdCdzKi2GEB/COjoBRipetptR1OtQCGYdXNZF9r2+QgVmPtTqC3Ex8udJ9OwHZjR87kRgm97Hk9VlJwXZ0q8G1id0ZMg5rqWclP94iURVysNeQ4KcRfwWpKcKIkO1yfswC2pNi4zGIMsR/wzdOGEWIj+TrhuptMvTt8PtLvnbgaJ9lKJVmFG4mnZskAXeDYwGFygalPv3ZO1aK+xMhfx1R3SJNEOOtOJQLpBQUvBvkESt/0MbTUb2S0xWaSKRX4VQz1gEnn2JKQ+bLH1FxdD+TGNfB+ZzdVTDScqAsI+gMzhfrVVsXQi6hlJ/O9MTvgzjCdyuAdkkm++GulnD6IfXmz7yY1Fl9Mj/HtlvG8x5NBEOd8L1R/hA4Qk0foWcXM43fyMk4hDQMxPwQmGGZpCE8GtbjYjGtc1gYR6n6eex0poq0ZyZ6L1nP54R7Tq9kfrkmUv6/4oWe53mBvp0k7CPUH8TGYXD/A2YdcM/INH5ymdDvOk88l6FpJIhD0cn1yDQS5cm3vURbpwltL+KeC/K92C2SA3Y7jHgxb1kktg2EsQzE7tpLqZCkLCTVMZFdrQlp5YDroDRKEoaN3B/BoT7q6ynTSH7Us0FShPDEV/DjCNY2SWckkTiA/hYY/BNJIr0aibMwFuoVL5WaKAiOxg4SmaiPQu4n027WjSLRAWI5+h0wjBch5O+IlN8Dk78jeBERjQM7o2F+7GViKxGNUalsLEr9Bw==(/figma)--&gt;&quot;&gt;&lt;/span&gt;&lt;span style=&quot;font-size: 17px;&quot;&gt;SmoothieCard&lt;/span&gt;" style="whiteSpace=wrap;html=1;fontSize=27;" vertex="1" parent="1">
                    <mxGeometry x="190" y="190" width="120" height="60" as="geometry"/>
                </mxCell>
                <mxCell id="4" value="&lt;span data-metadata=&quot;&lt;!--(figmeta)eyJmaWxlS2V5IjoiMjZ0b3ZqQlZtV05ZUEhPYlM4b2pMWiIsInBhc3RlSUQiOjEzNTExOTIxNTYsImRhdGFUeXBlIjoic2NlbmUifQo=(/figmeta)--&gt;&quot;&gt;&lt;/span&gt;&lt;span data-buffer=&quot;&lt;!--(figma)ZmlnLWtpd2keAAAAXDwAALW9e5xkSVXgH3Ezsx5d/Zr3k6eIiojzYhgQkXzcqszufE3ezKrpUSfJqrzVlXRWZpk3q3qadV1EREREREREVHRZRHQRFRERERERWURExBeyqOiiP3/+/Lmu67quu98TEfeR1T3s/rN8mI4TJ06ciDhx4sSJE5G3Xuk1wigaXAy7Vw5Cpa4/16o1+0G32Okq/tdsVfx+uVpsbvgBWd0L/E4m7xlqv1kBzgW1jWaxDpQPuhfqPkDBAP3AF15LhtZw7gfna+1+x6+3ilJzudnq1tYv9INqq1ev9HvtjU6xIvVXHNivtJqSX43zHX+94wdVUCeCst/0+6Db1f6DPb9zAeRaFtnx23VBnqzU1tdJT5XrNb/Z7Zc6tF4uBtK305m+nWv1OozDl56dCbodv9iwJeTPurwd8XXFR0cRQngIWEkTurizgzBBQVXpt5qmYWUyW51aV8agm9Nh2N4bRCFkZYq6piWIGq1NA+qt0WQ4mlzsHI6FptlqPux3WhSoVsWUCwc7W0+i0AelKq1yr8GoAHW52NwsBkDeRqfVawPk1jvFhtDlS61W3S82+6223yl2a60myMKmX+62OkBLMk7S5XrNsF3x6/VaOxBwtQMR027m9UTH3+jVi51+u1W/sGGYrNFUs+JXEHdKd7LrPyRdOhXUa2VBnA4uNEot0ZEztSaNNQ0WqdbK50VU1wXVYtvvb9W61b6re3251WzC03TwhrLoY6neKp8nd+NWrbJhdOsmeDVkpDc3/EqtCHBLtbZRrfOfFN8awMAO9jYH9hF2p16URm/fKgbVWr9Ly+Tu2Cx2asWS6f+dXQc8zgD9MvIg9/iYxGn2Exie0dcnBnuDg3BrNN/rho/O7RQ9PniwV+z4lCpqO2lqOtloGSXyuvASeaH3ZHNJttLakg7nryXYQrvYKdbrLCB0vNHvuHEuLaLr/rpgl/3mRr9SZAhF0/iK5FkqPcmsSma9ZrieMHCrXvFF1mtdlo//cKsmvTzZ7vgVfx21qPTbnVbZD0TBTiE3vy7lp2MF7Ac118czCarRq3drbYM82yg2e8V6v9Zs96Rv11X9h4pWg64vV/3NjgFvaFPNoW9sMWwLyixLz25u13vS/C3FTqe1FQ/zVpuLZXFb0Gs06Ev/XK9pZhzc7UaJ7gjavl+u9ku9EnMI4s5as+vLmmedtzrFDcE9rjQOJ8MGK026UwyCfrfKTGyIzcEqdhrG0ulKsXPeF9aeG6QoVE6WD6ujhCEhmy+36q0kVzBKaeosBax/A5kFR41KC4Umv2KrxNnVVFlPBK31bt/wILdWLXYqSc5YOL/j21V1yn+ojJzsyE9XzWyfCYrdXrLwz5pWAK6r9xBVK6h1pYnr24PRxGnvStBCt0EqNKpSY1poTboKRicoSY08sDiAgkJTxUKAyyU4iJzS52sNK+YCVu9cDWBpkyUkRm65ts9mFOwMxqGVPrtJx++WjeDXazJOjb6a1rpWb3P+7m6443qcr2EuOuwlRRYQharSabXTrF5vYbyYyWYFO9KTDnqlYvn8Iion67dsbPRSC42qoRygVa+N3STV9daWAehC1/YhQCPq/XKxLZqZT3MsqE7Z2PWCMK2EO9PZYD6aTqgTW29aZn6RK7BmuLXzfqptXj0cyHbQnY32ycV14N2v+m7mdfNwfzuc9SajeQTfTlGGqtq1h/x6AKDpNTuiUHrl6SSaz9IZXmbmwSspN0PSjaJsaB79cGLPBWX2Q4D8OhwrfVuj4DKGeimYz6aXwuJ4dHFChYSZwswzsQC61es60LPE5cEBGhmPh+Ea1dCJvfTsgha5yCByNus/2KvV2TQxdCDzTqfEhNktu4D4UD4MaIJayu4Fy6m1799NfiWTv4f8aiZ/L/kTmfx95Ncy+WeSP5nJ30/+VLnWKWdbP21He246Esk08AI6YFXJ3/RlBDoeuFeaTsfhYNI6CGMFyfeadqUiRqrJ1gWsg14J22xg7yGzgI2+GuFXp7PRi6aT+WBMdWcZM3OLLhspeOd6bLrrNdPDtPZmOJuPWHqCa7UpylQttbrdVgPIa0wPo7B8OIumM+TDtlDE9lGgyp1WwEqrdYC1f8GXpYfqkfNwGU1T7SJDwRaWUXHyeSw9SYGkXKsDLTXEokqVZaYYbxNoJZk/k13dZLFPZ43RbCYdSFaRmXVSbQAsEJaRHa0rKuxVBtGetSdemV0YlEoVXBubY9dDvt3cAKXOtX1JdbApideuiO+Y8x89mM7mx9dQDh8Fk87m5xaKihF4KKZ9HSOSJevVB1emh/ON2WhomeTtsspIPO2gZ1dZLq3THszn4WxCEVS1tlkh2Ghjq7WZz8P5tBNGoxfBOhGR6Y6RTNIPnUCeVOvODic7Tv28Si0QN0d4KlxedlMAHcyvjMMgdGNn6jpBy9nHLs4xiS6jXVZX8NNxNZpl2VhyXb/RZoM1Pno+ZoMw52Eiyav2G0Ad7xYYjsHOJTuNyZiqGOiHka7pgWajxJk0sKU2ek1zV0nXitQroWRiYoBzpkJ5ekiHZq7e0mPVQ+xucnLFXld2rnyGVcGwOncYzUe7V8g+Jpd2sez3MQX2qJCz+ZLf3bKOAVKCT2Bn0RhckJwVgtrDfr/bwsoYAS0gUDomudZo43STkxJorDTa02gkk8t+Asp1XBVLiL1njyeGbGsmtpm9hmNLsQ1audQWZ0Xkpg/qmNvxMWhIJixZmrWTvBJPHabA+l1yzCSvex0zcSU2ZNJcud4yHmseP7sfO93kC702/qzfN85+v9NrdmvmeLPEKqvUxLsxCrBco2uzQablszj+LH/DXRXXab0vVdmayOtGi+MtrimwZ2FbkKNWVVww4LwtwJkQsoLNGc99CSq8ZOMYc6I1I1yp4E6SrlJ23r8QVztBdrNlj0RrwHYcVTOXJ5M8K478KdtErDinbZZD3KbUPtOdDSZ2Su0Ib2fD5ZjQ7bNDsPWKLCBTrGSm2FTR65ygST1zaumvd1rJSSGXQcU7RT6Ds3tCIYNJNoWldi+oWpxjtpxiYl4rKcqyWk0RCacTcg62OMdpLcXEnE6mKMsJMcWIhNNp21EmEaKY2ZkFZMzv7ALWsrxuAZdwvd605LCO6Q1ZXMzzxizSsrwpi0o43ox5q5X7UkbuFnxHwhDFJlbPLMlbOSa08CZTzG3+IGIF2xk/TeSi3CvVyhQoYR1nNC59JuuJabIeOTVkiSVFeaFbwBRs3QXckrXqSX45aHfslrCygXqy5SaIVUeaIE5YyCwQ1rJdHWuLyO6WmI+Tx5BVjkigTwU7s+l4XBnNrCWh026NfYENAAkbA23rYobmYg3CIUZsHlLuP9RmL7Q2tQwHcapMTm/02IW0FxHNoTHgZaXHUzwjA3rl6RjXQ+dnalXpi/zjbfNPbsA/eeudUPlRcvoK/3gdUFCniMv8k9vjn7zhFMynB1TYEVi9QOkDZ6Uh8BqD+Wz0qNJL+3fdRV7v33U3ibd/1z0kuf27BZnfv1uQhf27BbnUHsywyLXJMKSed/FwNFSPZJiuKc8eFyg8GowPQ+roQ3N0uFN560ipOdgPlc7tDvZH4yvQ60j2agAPJvNoZzY6mJPLCe3mYDYaUOVwP5yNdtZHFw9niJbd2R2RFWrHfAJoIgsmIAhsmlmsGhwMdlDqhbqEGnAYxIiZvCaG4U6V12CwLpMrA8xywJASPDAw/hTqbOY3W7s8OIhQ5rQK688cLzVJP854bZ+jnnQ9B6Kf5MRFJ4goYAEUg90AXMrwb8dyz3YLF55/8eTxngBMfwIjZCYnoaqh02apaQ4FxsCvh4O5EfCf6zYnQIpU+Z62IXG98MrtQPA56Q2p6SBpwQURlwjQiCu73OpUmqQrxfWOlK9WmsYYnWj2GtKlNRxuCaSdZL+UIZ2q2PS0eOKkZziwSnq2WDTO/3Vlm17P6UfSGwKbv7GzaeIeN8nCJL052DKB21vKwZaktzI5gr+tXDYRvNsD61XdUa2Z0Oydzn95XKvTlP49XoRC+gT2N5nKJ1a65oz7pPV6Ucbx5MZGR7b3LwrQNdKncJqQ9r94HeeX9KlVm35J1bb7pV2b/7IHbfq0tk2/XE5IpE+vr5ck/xWttkmf0ema9Cvbtv5d7fNNkdPddcwH6T2k0s97O9265O8jlfwzi6XOJun9xdKm5J9FKv1+YNPyefYmHSJ9Tqm+JfPzVaRC91xSofvq4vmqjON55XPm5Pc15XWzEJ5fbpt8sdzrCF2JrV7yZYybpJV1y98neCf9WSe9h3SD9F7SKs1KezVS4X+uasdDaxvSn3q1dU70Bg/W+CfNGo4Eaetc+1kPkLbPtR8QPg+eaz/7LtLOufZd95EG9XMNqdclWCv0PXY1mZdNcW5It0ilHw81zjcEf6FZN27Zw83e+S7p17IBSL++jjQg/fpNBE76SDvoCr5PKvgXdM53JD/otKuSbnd6JZn3nQAHmHTYtf0Iu01zNtllmmT+Lm4SCiPd27Tlo0077hdunjf6cmmz0+2QjknvId0PAiyvUhNSyU9J7yU9IL2P9BtIn0k6I72fNCJ9FumcVOR0SPps0qMgwGYrdZlU+D1KKvyukAq/F5EKv39FKvy+kVT4/WtS4fdNpMLv35AKvxfrILhHGH6zLm+aHr5EAGH5LQIIz5cKIEy/VQDh+jIBhO23CSB8Xy6AMP52AYTzKwBMV79DAOH8SgGE83cKIJxfJYBw/i4BhPOrBRDO3y2AcH6NAML5ewQQzq8FMH3+XgGE8+sEEM7fJ4Bwfr0Awvn7BRDObxBAOP+AAML5jQII5x8UQDj/EMC9wvmHBRDObxJAOP+IAML5RwUQzv9WAOH8ZgGE878TQDi/RQDh/GMCCOe3AtwnnH9cAOH8NgGE808IIJx/UgDh/O8FEM5vF0A4/5QAwvkdAgjnnxZAOP8MwDOF888KIJzfKYBw/jkBhPO7BBDOPy+AcH63AML5FwQQzu8RQDj/ogDC+b0A9wvnXxJAOL9PAOH8ywII5/cLIJx/RQDh/AEBhPOvCiCcPyiAcP41AYTzhwCeJZx/XQDh/GEBhPNvCCCcPyKAcP4PAgjnjwognH9TAOH8MQGE828JIJw/DvCAcP5tAYTzJwQQzr8jgHD+pADC+XcFEM6fEkA4/54Awvn3BRDOfyCAcP5DAGOi/kgA4fxpAYTzHwsgnD8jgHD+jwII588KIJz/RADh/KcCCOc/E0A4f04fjwvhWs3ZrtV9Ssculic+ZWNwcCBOjvZ2Z9N9ccvmU/71SuPpttJ6+8o8jFRO24CU8nLcE+5JfiIeGf7XcDAfGNplldscDcOp8ryYJrq3NxsL0fpozLm3LN5kcfhCYhBKr8ylU/h50d5gOL0cAXp7o4t7nOD38PvwJIfhfDAaA+VDxhKJk4FHecQJPyTSBLw0D/dNaNIWLR+Ntjl77gi8Ym4MbLPuNll5J/7vNrmDxzQbMLZVtbo9E54TWiZ3wnRGeTebCTir9I4IQr1AeVPxMOfigOeORtFoG29LqzyJu+g5rQoRnnikdvUSvCfR7nS2r/bU8sjMxku1WjFQdw/3eSJdB7U6mIDkUFGTIsGctRhcPjxSpm1ZXUc+e6dxvTphMXvTw/GwLP1rDCYg6M/NsymnEyrTzbVIqgCc3DWyNZRuSl+u1akDGem6KcJaq9Ph/vSFozIttAk2I+NlfebIKMnLtLqewPDF0YQTjLS8NRrOGZi6YQFbDUWOoG/ckZZwYNVf59RN4pw2mKsKyqe8wqXwipoovQu2PprElZhdwVRGF0N6l+P0QM66tC9SeclsWcICNwfkYD6y4/RyA+7Ru4OLNKwFbIrU0ON45Zj4tG38hp29gbj54SyCQic501CtIkP2IoFbR+GMMGnYHTC/6jWezo1N7NSE0raZdS53xvQ+YlvRhYvjKwd7EfuJXhomFzQRu4le3ubYd+kbDqeyMN+k9VnLZpMOQEKPV3YZTCKdV2m9ujsYj7eJkq1TEKmJPrGHIs5o7FJp+ihcXqf1Gjmgv/P0yXkScOVUOnOntoI65fDhMJHv6fH0ogTnDUl3Wo7H3trdjcI5lkWt6jP7ozgil9S7bp8c/G3rr9f6+iHHpaNwWDed+HtP31CxiFTOJ+0wnbT0grS8VFos4QVpsZgWpFXYpS9Z4SxdLYtlN1J4LEhgxeEzElj9P5DAieOjXRvawdVN/xntyWqmD8rLbxPNHEZqyCHY2k93Ys7txXQcCApE/hLGLIK0UpR2msgAtiSGc6NoczCGFUZm39Y9z9JZVoWSE6fyVrB79nSIlC+bRclCkrILADkBktHnJVeMdmBFbhkzOZ2F9czlIFZxdzSL5olcpC06lM0vbcjkKW95Z7q/P2AIJbubpOGBbWVXEINmDDKBRgto/2rmg+GRs8dLV9ue5UqiHOxSM2IgyEsjr5i57HpOWzACR+7uqYTVQWYG3RjMmCQn6Wy3bJDFaJXUlEwznF+eQu7Gg3D2kf6LiPbwTzKqq+2CbMvcpiATLRMfqUe0Dq7sb0/Hjn1kMrTLbm3hmEkkDDxCJ7JRBPQ9XEc0bDZMXcwWrTQ7vuehCXA4AIfDyTEfWW2EE9nekJBra5rlrA+jcJ053xCXgnFcmZgAicYNGO3utibjKx2kfjQYG+pcxep5bX//cC6jM7uP5est8iXjrJdXjFg5nXAXmksoJzY1LmQhBOxEtD49PKgh/nhd6EFc5+1aaJBq7bGLjcBqj1lutgE6i3j/NxRBOH9sogCtFAlJY+BCAmCopbe6OxqH5+24IlMIC9wtN8bqAM+JOJawbDMvbq4inH1MmfPFCuMRXsfsikxodxocbkv8axsyQagXY9NYSgfTCcvStrR8ONkdy/Wc3LJkWa6Mol5cFKLiatV2uxzXbwwiFpadstxOjLVc9cHh9ngU7cFMGpbudqfdcLBfT7snjXjHG8nVcEpllbYYtehAMJdhp7omrFq7wWV6ivY4YlFRPKeFLixq0bX5bt7zf8SZhT8YB5kZiatY1vZBB+bR+HA3Sk/wR4wPZ0w9yzk3w/AdisOXT525AknizC1FB7NwMIRiOdqbXkbWuKGlEAkOZe1BvtIVL8+YvdpkV3xp096m0sNDuyyp7LXxyKZSUAmPRjvxNXEcfZbwhLnK1mUCRiaE5hkcAWkJXJJnZUrFTuzYsfZd5XJ5q2+OJPpYI2xLkuGcheI6+8VoGHptyHyMdkcYYDSXWpbnh9lkWsiQfbvtLHlXGKiV5M5RcQcRX1hogZMST3LxtUWOqDnjiCnzLpsQFxwipufGvtkzoZll14ESzs9FrIZshegzJpHe0EoyarnW4w7AXsXJdYh7GKKvYmDHkNQk9FSr9ONnS1eTF1E0tifRMs/bTtCGy8cRZYoqxwrVHHDgMDI0VKrQLG4S+TTBXcWNjHt3pYMtE271JO0TSTYEOXc1Yy4+8z6nGDkEwpnpFNMDRfwKDgIVdDZM2JcQXRu2/fa9/c37QHi2ZsCxh+UdcXaKDnd3ifqz7EfimJuusbJ28LPmshvM1TepXHR0UWyFcZeZfrIcMEWz/5CVQK51OBeXQbw6yjFTzAZbs2wc5JehWJ/Odli38j4F23MpAr3CplPcjqbjw3notl4M1U52UJ/S6oTr8eaGa1J5tfV+0/fdbUqxvlW8EADounEk5ckC5ngu47gf242XrzzscLJyc5PD/YA1zzxECmfLrXPOg5HFBrIK8DMuHmLZZi6HF0O/mMaVAzF4s4l6QK1uYM2Zf3OqoBGdsIq3jlwbuwTBZSwB8jbvbFcUNmbBI7L+AtYJdyMQsCudl4sCq4vywIeEW4VO67xgPPdiNeevr9uXOnlisK2OQAX3NGMJK4TFN/wy+5Rty1rZeAN2m1O8tQkBc8QgZc7pfSQYVyViLuJlT96TabJF7u4Ls4eeIyoQRmVlbhjCQ36lv1X1WYrVWr3Sb633bTHXGFym2kfDjJBlesGVSEWvONtJeoH3ixCLk4tIkdM+9jeT9UZc/c86sanOWZNfx6em7uFsRA/1cBQdjAdXjBqviW9jskZr6X97fMgB1bV2YDJIkmr4PZwOqXDJDrRtyjrheMCxYc9WyB8YpK2wT3yAtQTIOjJTDYiTXgnHIacMlDDfOBzPR9J6OFsfhePhpp0KJmiHpYDsUQadvRTkJpABis/XGEjYIqMf7jmEWFoSz5nTnLWeQPnYgBYS07qUcPMnwwPxoxlz6EDZs2gTz+cgnult7gFts3/PCkoqA7Ckx22pRdcz5HbhUQ0SSytiDoCknMvGWqXCPS6X01g4o7jE/WOUfY8Qv+awVRsj2zmaiUAKl3/CzqZLLqFmzrE0qCzN+PVSa8saClZP0clBO0+mMT0K3XY8HQ/Pm9nFbUb11xO19jK01RFRm9mVGsEiqkTTQ2yaEdZQhGXz5WOeDLtsOJ5yvBN9YfLp3SXUZWKr0d5u2tSYMqecciC71DOnxPzWaHgxZNUxevTC48Bh6tKkPxxxIJQB5OcjtG4+2D+oRdMH7ic8D2sM7AxC4cyghDgcFiXqktvBX4kzeSlAyMbo5Cq+/LoCIamtKhePpVaxI+LT5omCWZLYhkuOuFhvV+UqQ14DsJJ9IG1e+Lr39l7AjDBVAb4Dy5I90KlsqYcRINULBHYoOjIZ9SpPmR8gcA6csJi8v4ytqjk92SjOMw/2BlGolpRnAIu8/wA7Fl9Lv1DlMllL8Ky5dP+EMp6PRT0wsXIvSGpRzx5FbesJy6GARft2jdeIS34gPYb2fd441Q3T9xd7/D+DdAqjXuLp73fW45etBWZ9Lau7HWjbC0dRMN2dOyMRSBGNvkMTpppOegdDJsx15KfBrY/G45jmB8nbvTXG/AhCBOoyPqLI3D+YbGWh+78c23/gn9CM8hrG/y80Vw2ZonQn+Zzm7uHYbvB+b/pC3NzgEHVnYmehMSXGvgmnP2DlHjWm08l4RDxvfCVu4dPY7j2OlBJgtGNCOo8Q5XHozNBMwY/GBWIXUvSPxWjnMSQFb00KjLOfFvx4XCBOQ4p+W4zO9Af/xXaD8l/QkUEOQQoJ9yrqo25aBWcJ45LfzJRIhwX3sQzOdkqwv5XBSo8E9/GMc9keYAEi7sb0r+hr9rCUkNLLDxilQGk2wBygE39Ct+MsDhZzNL+yKVtbazZEEdRfe/pv4rk2m2c62e/R6kVwM9jFNfGvgJIK2SPoN2YLNuFvVeSbLDqxkhlde68miBYZ+kVFfbU+jM+ZcM828mZiw9jc3mMUfy4+yiImWdyfivNmmn9P/DDbi/Nmaf4+Eivfw6D+IKYLk315DVfXRrDLi5X+OeUiQq2EuxHTq1/BPp5BI8pIfdjT3+G5AcqA36LVN6RZawRkKiS2EiR4Oab+a2yJHFo5kdkCM4DvWmy6iLNwcSLxvwh11K/kGMcVQ3EWlg63mSxxO346Of0GcoTmkk7/o15Acap+v9b/ZEyscV7frNU0ztguHsQV6rK1qYL6FROPd47yTTFsiWsY38HF2eBgT+wv2/equvkYyhKeS7Dx85xVdctxnCU9P2cZFbndyb5B/1L1xGugbYVuUrKJ0kvoTz1NPekqpCXuCb7MZqJuVk+OYVu0KdlMrPFW9UWLGEu2xd4dB1PpWJqzxV8nEmqyzXC38WUxbIu+3rAzk67V0+KMLXvEaUbXYbnbVv/JSN7ErSYcB/f3p5O6nDEPOcAz3f9moRTv4dH54QCfOKV4MQsoIamMWHWhjIPtK0v1zVkqu6eJvLIkL8mSYFDkpgf0t2TRAV4IS+rhcDal6KXZouahfVhlH3UdqG+9RqHTATXjkunqUmKQxpNQc/Vt2eKyPLo64hIrg0u2rEfVt2t2WyxQzHzMzbyhTNb9R6AYMB4b+b5dfYBr0Al24GIb7x95GkZa/XaMriMf8r+Dw/xonamXQ+Z/ZOczvWONOdfms4so4z682lN/5sks9XDc6uY4G/djmbvt+fQiZ51ha9LqruO+IalIfaP+zQRPpDZb8DGdXCuoV+W4ZxbTILxek1OfTBVHUBE2Vr/UNF0aDUdpo99ncF17PyKo56rXM9CoOhh2uvUuZQz1zZnT9ZIDrc4+h+jbJWN5li1k0V+V3o+uONAWPJeaSVRtNcnYwq+OsCocKdYktaivIUSRXJ5yweUytvD5Q9QNs8XsTriuOZXJWoLiPp4sfTsrqUVVBKxFLRvPoOz6BYQlWhecca1e6alfymzQLTsWhnXDVUhbdQNLkT2mcv2Z5i1JNTLug7vDXFW3Z/OWpGlRxnipJ6rHZbKW4EGLQffVk9Xjk4wt7Ni8+ZnQU9QT0pwtDnbxKVJX46lp1pY/bCtYlFB8SRZhab42NE5NhBOiv9zBtqSfCqbsIir3HENZwl1pdyOc7odzHOjPan1vFmFpLtqWY6RQ3beIsnR7ciXE6kQtpwf1cBdjmEodEX+3zhJ0RNDHKF6TUpSm8/l0/xpcvuc4zbUYvTYlSktGshEeoOwsUHTue4/TdKfs+JSmJK/Tsrnj5bImI0w7o0b8ZqV9nxz7itvH4mov8ban4lswvqrxI8D9sMPZ3iboNzm0DDFB/ohDmjEl2B91WCYXBx1FlyXzFoekKau0DPvHHM42laDf6tDSVIL8cYc0TSXYtzlsYObXorGaWaH8hLfHxmQ3/kQmc/V4dee18FY12pH8zESMjCopLLfL2MIXmryMC7tOHy5l85ZkbFDtwVB2CEj2s3lLQoOgyswEpscsUrWuHjXIc4f2ZztVdcXkbWmFCLLJVpNuO4Y08Nu2CBNtfJa04BO2gGABXts59Ts2ax0P8p+0+TabGLt7MHqR1Dqn/nwBbdqvEd6I6NJf2KJsx21RRf0nV7Q3Gg9d1Y3ZVN6af96WuG6ZKQT7lwtYqwSg/8qiDRvDPwjHuwjnry0+3qapourqOzkdgezgdM6i8GGZ+keZ9O+yaPM7oqb6VZtzfXYzRUsf9PZHEwYdqn/MqV+TrTnOfGihhukFOsJZYq7a6ve44wom6PbGYJ+1NJjJAvt9DwVylzlyvjW++HfIgrT3KoEEKpOCV6YFJdq5mNo5TN936pSV8QA+qNX3Z3BdanFJ9IYMqpLeF/2ADgfJrzMeUm/MULVxAcLZURiYmCyd/jnOCiY+RqGh76h3ZVDyc6g19fNpXwlbyeXQR7R6t2axxHcrXYpUV/1ipqkugafpoczye7OUjQEZ/jM26Zc0mbgkM4L3SUSFoK7Js8syteOBXBm8P9NAYN4uBSjZvGjeO4mR+a20q7WUdaT+xdN/mhaZqUBCJnamXp5T/03bOK1xoP9G64+6vATn8HFsMPdvtf6jWDZymoeH+get/i7F+ZywwfznFFNnpOYgrv5FEyNN8KY2Wy/78H9JsdS3uH9IcWW0jskyXY3UP2r9P9IycbSSAOg/a/U/NcfoY99/OKn+f4vtMfNu2a+q/4qEzbHhGpf1P6np7GMWb7LMECnDVp/wJqjzsScEb9MIagc8txg7l+psV4cS8/4LT32LN8bnRAWPRuFlQ/v6nHqdZzrnXEkcVK3eELvAZYbOgouSfeUH8CiH4bSNMmyzaNRrPfWTsk73Dwy71+XUv/cum6ioPFXgtIwPHao3euq7M+iy/d3wMgdoi6zYoXKxPp+F8c+K3+Cp73Hl5cEOx5MiDCNkrl7m0a4tqU0ODufJzcanPfWDrkB2ZuL4rJ0fcpjq9AjDYzTh9Z76txiQLYMPMNeXRMAM798hC9Fpxuu6wVWZJTPVIfm8Y9cI54OhjPkzHh2yOP9IhKX+0NPf5jBtnAE2hCuNcHJobfTnPP3tnpnQzvRybEgj9XZPvdOiMUGH+5OFkp+zJVSw6hOpn/HUuyzSkm/J5mLQP0/MjmXHKc+fHO6vi4py7Pm8p/67XeoUVOh2XPBXnvpmIiLYWObjhAHs5vi8gfn18ASlY9Sn05wtLsn0W5vpT6QfYk3OXIW0xOXQBP5ibWrZ28frrsZacj9ibdZYYTPzoIbFcusixpLV90eMpz4igeQ2EpezxY25LEDszyXsDAR3ZPOWpLWNliz83v6p6inHcZb0IWYfRcn6KfgvX3w11pJf4Mw5JGBrfqBOe+oZ6unHUJbwBVYIAWddcBGhLv0ViyhLxzIiKGImIZIN8jnqGYsYS7bNwsTmS5AyUp/W+iszeUuxY59KiQ4Qr1V3pVlbPtwVO9PgIEXUwcwhUxVdhbTELFfT9nSdOdBKzrdx1hIc2bGUkLrVi7g+1JcleoW9+YzWr9BIzuimaAFlr9KR2SDTH/s9rH4YoyZOd7A/nc73EA2T+iZHxxE74rZpW71F2xa7IpyIy2kBYPhTjpCJYp52TBwfmaqvI5a7k+LoPUx+lrufR4mFivszCyeVkRg9eWzxTsclsTif14RgB+4q9K+0+tXYbNtooKDrZgY2ndEu4ElMqEuAhqzZHz6p1a+ZWN/42MONj2r1obhA9sE5jGMCevnrcVkq3ZpIkZEIwce0+vDVFMX0ecQntPoNQ4BymIuuR9TvGlkM2DJn3BWIHN11hrj2RfZGMwGyRXzaeoJleNIkcpP5OKf+OGUgtw3C4TEYfEZfCq8Qubl4Ecm+MscR8WiKY+OLCW3vzQjtIe8/09JTMfrEB/ZK4e50hgNEYEgG+Ij+f1xUus6uRphc6/9Xz5luCfSI5NXfeOr/Y0Lo6F6LmDXrlI6ykU6xi0S9gOnIt7IpRvPUI325F+5vh0PD4LU5IkLEsPYa4XBkX7B+Okc0CKVgnmWW6Z7TpDd66nu9aLR/MObgEL90ag8m4ViG+0ZvsMNITAim2m3UZXn8Uw7jLpGeDhZH/XNO/VSGqD7YJoa7pt7hHQkJGNP8X+cw8jGmjNU53Gdk4tUdcD5UP5uUyWGpdCVgo6LkLZ56b1IiOAoj9Tc5/e4sFrf43Vr9QoLqhJxV0WWjjJ/NqfckJdIVc0MRqb/NqV9M8F1medLEVNDxzyTYYGd6AOXf5/SfsNUQz76CijzKwRGfRIzidHc3QISHkXT1dXn1lx7+ymQ4iHVd0O/y1K87dLzzCvq9HsH7/RGhaCG0XNS/5NRvsL1n7uyYgI94TCH+Ar78yz31H+gInj7b867cQLw0r37Xs4rCdBqdqg1Z7epT3o4YgY4NNKbW6OV5dvmZxdoDz5r6I2843SHmSWgzy/tlefXH8CYijxSyl82Reik+sReNWX5F2B6F3b1wP6yPts+zGNfwFER+xfl8NtomYkAoMK/+3NuEOvW/vNyAHeCALEPU+wxxUJ/KL4mVh9toBp5rCFYaoN9qVV4dcb+r2sVeIDe+utvakG+lCL4fI72G/RRErtd0UN6RSbafYAvmK37rrc6WvYxeMvlSsXzeIZYNwryCWMFHwSMyfpR1w7wlBMRBecTuz3FMY1LETKSI7M81BjNzcWcLUVZGlgcXZKpYbGEUtWw1m1+y7VacXV7wMT0cXZYbRxy59cV2GWsG6GWegYieeZppnY2YhB/ytF4s9Cm5AqtLZtbSRymbMn2of8XpasrjR+FxrNSnCCY58eftvSz9OcrQyMpPVpSleLOncpsLGHVnoxYENfMDZFVudeQzWJ1ipdYLyGv5NNxGRz6IKN/nsFReiqw1K755pJYLzHum/lb8WZh80GVKM7UKFtEuVuSLMPE7Qfl2YAZrX70sLyLjFy8ri+jkSczqZi2oleqiXCfkMZX5ah2ZtS1u4+VHwSeTj9WcSj6HJ02ZTvSPj/n0Io1p/SqiMymR7ce1eZ29iuza7K4rtToVENJgIsLrHdLVTPA3OLxpMcHe6LC2gQR9k/kASrPblx/F+51uzbz7uNmKstzqyRuizCzd0qg1+7Hcbm0UH0oyt0lJIsjbpSjJ3RGrlGwSyQ6SKu9bM8qbJfEpR4MTHQXLqmJDSdRYqEE9orwykN0FqJjh/ZPwXijzKRCmLLY5m/+++oec8HMrrCtcORVhbzkDZbeLlOU7YPmYdD5Ewn40pFfpo6qrWIurAHmG7TuvYutofAhSlhFIrJdXNDtX2zUAWYbVu2F1VblPYcrmwBVIzyxpjcOk2Zfl6Y55Oavib2I6ZtltMm3sfUljmXKfwrQxQar3e3FLMR3mejIwO7ueS8PvgYJTGaa1yYyZec3NCTlxTmOP/YCn8kfTOTEgMh/0VGH/MBrtmNyHPLVkWXcTck/PBa6Hk4sESTF9lmAz5uDhHc7xd7DPaWkjYYkdn7IRV6RzEZ2ad+HWiCBF1TI38dz2K68wob/WXsJqGO5SD5180XR/exSuu19uNe1QczvZ6s2k4kcYXvbZYKF8bTqVT+2ZytozLe+KO7UKJrcfmC+i9ukGs1lrVv1OrduXt6X9QL6VYQtyCy2kTwoYezwEtzA+zsQsEFdk1Ct2cid2XAQJUKjBeDOukWM7TK9f11SeG/60ek3qFsy0f4LZy458+WAmr1Fwhg2viBtMtbLQvMGztcnB2sLYBPHTbeY12r7KtTmUaKFyV9qUF+jmiwNGhCQ6fv+NuLB+zbLfl0fZIBZrt4/1DT1hGUwuuuya1iPnqMsvFBz2U572ahn0IhN4zKVPv+8pOcEgqi9A3BVKZqPVaLeadnNV9BcXSj42Kf3V1jvx5djDvmo/7eS+EaXM43hSLcPu+xXUwr7A9IpdbH7Vr6AhkMg3sYK+/SazFLOB99gRpKVeFu8eLC4GzVTOfdhLdTu9ZrnY9QG1+Zapezno2WqpIVh4hGvhTU51aI5BudhX06pabsvkZDoIliSRMCua5WK5a38hoQJfXJGumdZ0fivsdE4cOYPsB36dfdiUOqcUqEBXRVLO2cs2xtUFTvt0JidAVNvDqTQAXZ+jkThygG6I2XrSSeWtHjiUG022zggKM4zPsn5GO4Zn3nKP1J96uhCZpkNumgVHKSuna98EsAaWuf3cBbmCyWET4cZpus9WwpRotSq74GL8Vp3tXmj7QblTMx/1UOW2TJp237rwyoH4Arlzxc1iQpOXkyZp4VxgZLxkHL0HBbXcvtCtGuTKhnjnq4FBnwi2asaXWzvfkoejQCc7vUAwp0pF89WW05wU5KttZiGeqYnDTNzGzwQbMW72DWlcWEFr4kIsPYmxjkWiIfI1ucd8+sZkHTgkcrLmTVat18V61Dm1C2Pl5ceAaB7ctg/HGCYzKX+LGRxxNMOTEOnHb6Lk/W7YPOSIPyOXL6UVVN44XWalqF4zzejEM2av7dftx1Vytg8T65x7q2NAw+YfMAzXaJcdSl4hJ0fIwZgTivpHT60OF1H/hDItokSMWId/Zs8ZTi9POOziIckJCrNcUAUUL0IA4WTnSopdEpkg29m8ZUNjBbUsb1Nnkel0a7dOOYq2UrHnosXR6MUOSJ+0lJoBqoLRAGSgnIximehEajHGM07Jg72WsSq5ql+kGCgfXEsaKv6OoqqbD6/ojvl+kXeczLPFyhbrxWInLcxyw37+EBLlP5TA6e+shDKOlnmFkexxmtmi8os5a9mCSL0spxd/IRAxsXh68mP9fYid5UPAhYSzb7h4y6O0hS5oLuhQjQS1cBOHriYFmYu4HHtMN42S4VNdFSQrELxEA6SCuD0EG6m3tC+n/ipxWFDkl5O+bTpvvGt8N+aagb+LHbk8nRAggclgXDS9kO1y4CCEwOnYEZijaMKvaEiUd3vaDfF/WI+IM8V1IeXG1Esx2VEu3JfmUxrpvR1QZpSBuaM5du8ov22SOznKDZuO/DIoxthb1BUJPXBqNzEYlD5xd7bV6tUx2RNpg2zqXN1lLm3XbH/XuTKTcrWqT7J+ZgNL4Fbctjo1NzKOJW5EcnoRtyk2Tf1pTp0xE+aE+TpPnYWda75D63Mb94l7zO0JdnHSm41rk2Z4mZMIqOsXWauX5NQNiyizupm9G01jwaXRQXcqIka+NyWo0pXivnG0V9XNiNDOOeHVnL4lyaY68tKcvvVYV60UMn297RhBLVb1ozBx1yRIenuiVAH9ltuPtrlYJSzidl/Clpn3x+nvWnAz3CqpcLm5E2KkzvsX4t9IYM3PN3EiOCM3CW3U68YG6YdKrYf6+GXAXju4jyTH9tctV+V8TS5/Pl17Jrwjm3KkChq1NljX1itYDlU6bV/0ed6h+XWIeanLhHsNRkcfrcWjqezXklvtC/1KT2xT7HdZ4sQe7dt8OJTL49oQvl6CKl1JkLldQo3njTuaj2xDr86pgs82ZyPZ3inXq2i20zOQNx/NURLqzuOPmdiC/GW5TGT2C3vmthFoKRRGXcZI+XJCX9vHBlYHkfxIbWWXFYR+ZHHiPB2ht3J1coJLr4sjFEd2GvJriDIzlSdNC5vWlpohnUIH3LWylzuMByrnQPQicGE7QeHTQ7gojjozwapN7rm9lUMzNh0PWhyLuGu5xa7krzm+wjXGt7RIueXkdlxAsRRXNumOXIngsuwMJkeDSG4dQvcUjE3ggFunses2y8Ez+UooS8fEQG2lDatX+YZ8g1tY2Vjm05W25YZpfbozMOPZVl4GHbCNse7sJyyGxzmWx1yFKy1xAE7GB2btUT84tp7NowPo3WVYYu68LlPMssDhPWIxSEza/A4cyLWg96bz6GA6d1kv4sTk4Hj9JpXtvBWmNueovhADZtQaj1psXqYTV5Z31UoY2wMOgPMa0VMtGzbmCOphIHs6S3ebLTXYIUAsJxmac61H6s05vM7EiiUeB8s5jX6rjs+h3gTQdVfeM+L5tam9TTyhzEUHTry3PGXnMo29hUjWJLycZLyr+liRPuaA4tGAYSyjqGopa5NmePnYEBjUMOncW3OcOOLD6Vw2ALlGE67LtRRNXMV1rhBJzrSijzcbdy9Y4EPvophPBp03P/pSP4MJkuVethrq5aJF9XMK6ybJvGhuoloubzzsIK5xrDZ2eIhL8gXrL8q+bbqkcvIRwxrW1sxYkUCrBTlyNhq1rs14i1UxrOYCnD4cGC4MTN4yXUT28nYUU+p+40cmF4gQiarJr11YntGCZPR4EM1j5bDc1duY/KvRAWy4zHpnDgOdYZ9HPVl0Cf/c9qK+xCpb4wgin6DxIkOfLNJEKvaHa2jk1U1Lj67R0SDpkWPqOkEIEx95oZPGdhDPS60Q1zIxt3WRpWWJvi5RKZFXpN6V08uUEW2wP9Ul3MK0YmwROIYRm9e1eW9TXOE0KCH+qbh73NtzoK7JNqCr3HXPt8PBnCllnfoSdTEBFFUiZJ7kdI+Ng0alQ96dES3TZ8SJEUyY0lPPeSEEBeWU/gKWoth361wWxGgb4/4GVt0+/eRKOKeWE6Xlvnpluk1DR4xTLevVYciGEjYtzxOsWZaxscBcMuX0mhVxbHUj9aacfClq0UZylZTTp2hqRm/X1GkzZzFN1S5YVsKZBXz7GnaS6o+Iy+lIYvYVkSym77oDcqnSROo9OX39TmaW3ourebQwH+/Dy2R5bs2IkiC7m+S7b+s4fAGzjRJpdXPGdMQmiBsAvMw5E+xMxttz6lbJBokU35FTtyWTUjTHm4CJun2Xu9eoNelC7OpqdcdeMv/vz6k7AyRMqGFwsPfgYWgC3pFzM8VqIADcywOWKYtGEK5LyYg8vT1mAk3owi0nFMQ21gmtHCGyOmG9DemdC3CvjKL2gJkSRdJz8J1wf0AUdnLRxqmZEnwj8CabmwPJpC6rPA2VxLEruBj3Mod75rODwiDPYQC2CzVj2T8wlZcjUD35GAxuWSMNkrME0y5QQWYOIhqXCkCo9hfmzN4TzKcHOFuwSHbPWXO6j2dnx+8tLJ9RVJYpJsYiNTg0uhq2Q4u0k5TLxzAxLAVIS7PpYLhDp7h+WKDeWZT7h6kxp68z9REM5kHcjvo4Z+aDWOHbWbS9kVAfZbU2YIwslPcEoRKDkG3KQ+8NYC5nnVao13g6jyyd2YjUB3K6YPRDvUTrJYFKg4glZq3w4yVcPxi7xb482NmhAZVXK5FEbIIkWLoa57vSkeepE3G+PKXfE4t+vlozv4WnUwV10oBOHzlymux6cho4bRtuD66MESSIM9HCKpA7oQ/m9NnM0BKF/1BOXbcLp03rlTOM6w33GmrEssHKXmkdzqPRMPQnO2MMFSdiMe3M9A2GsI1QMcSPqBvRA07xmIExO8K4NxlOgzliVZ/M6ZsNqhNmULdsx7MeqU9wvpyFO3bFB+E3HIbok4vfLavbTDslHLOdvcCce9bpsB367abM58BK6FHk9gpP3XEwJSx2ZbJTNGpDMFHdmfyklEuV0HiW8gGwx+FGza/IW6GavSqp0yVG8ITKaHe3vHcoJ721jNSw6No6B0vJByyaFKMobBjGTzGiyFvYzXfB5mqRscVMFC0s7Qj3qGh+nYNMu3tIT1A0sbxN4EHEjy5UR1jv2c7eFZrQKwdX41avRRyP78TBtfFrMr5YXbjyYwjxCGFpTaCoOGN0cuDGhO1fsiVpT8jy2wK1TQvNRQ6Fg2thlzrxIyszU8pzf+mg0icxf/hFxX8dTCekFVFSj/MwcNWeyPQsLjR8/hCrkI19GKRakdskv9iEmVqvt4pdUh105W8OAHnFes387UR73wAg33Dp+IH7O2qFhrktWcre2i3HjXRC+2QqbWzpCzeWtGG5FrJcl2KuxYkNirOLPMYl2prydpkxl8MJJRQ6wJnCFTfOisW/QBXCRw9mmB5036L+AvO3766+1F+Jv+JeP1nMO4kQ+0mVJN6lrpN3G8nNjftjVDYrf4lG/s6I/WstNmxubpPcX8ar1GQmgfL+g71iXSRdaLa42ZIcmSXusuRP7RmRLSeZPlc/McnKRkf+aGbHFJBfzeazhCfsB+LXjIhP0grJKSv82rr05jS1mvavEZ2hv/0Gd+n9eqt13lzOnU2Hjp6FSSaRw+fwk1N0cXbxUIIzJlaW6F0jlq4JITFT9h4DmlQ3ocFzMPhIfZ5Ya1wgeoSPb0okSqiHIIxifYbqtLuobZ9l74urBtzYscioPRK7oyfW4rDXL1z0JvTCZFPaIe6bPBf4u2N9sQQ+peI+7cMfTYX5UYZmYWTm7Z9MhNxmE+7yZb7NNa4JxtlrFc5ei09oPPNQJX2TktswqyMvXORiXGgK5uNEJktuKTB/NtTllk0DLrPChLfM55nMrRrWfz54tE0IeFcelHA/6csXuRSq0rF/6VKPWtKAZ6/tuCTHDuNPuglik9VyryYvOFU9vrAodriIrUsjWv5Gm10KXrO4SZIruo+b5avyyelC9R7+Xarey7/L1fv4d6Uqn5lerd7PvyeqciyR0a4ltyUn11tcoAh0inXH+goATwvNmapgz2KeSK5buGy53tyY39CTf29s+M0e6U11+e7+zRXB3VLp8u+tFRnxbeu1jZ7hcTtQudh2A7ijYS967mTRkjxOXi483m/w7xNEqMaEPTFoMC0AT5JePZlLFuHzRQ/yz1Mq61L7i4ulknTzqe6u8ks60vKXdmQAX+beQzxN/ggT6ZfLn3clfTqrkeQrAvtHXZ9x3v7FBUwNyV2BEdDdMph7BHGvDO4+9+cFnlkyf13g/lJFZuZZQdvYiAdMF569ZZLntGvlrh3wVwWtXsd8E+e5tYaM56s5KMoIn1cvlsyf5/ua+C+VPr/U63aNXIr2EhqoJP13l12odzeevAqwlaEvuljEQAGvt3pdy2uDEDNWy8xktQGNdEv+Gl+9Yr8leK7ub9jL/vNiRzvyRFi9IFa3pg1b31ds29ixberxpaL85UugMtGMdt1n2mlaZF5xq63WXBcGvhvkupvgDTRVPnln+VQ5KVuoFvjFjvljHOey9/OnUnV/AjtYr9FMdPWLCG+bEIup/5RKTV7NtUwfnlpJP4T3JbGgni41sceAX2En4BlOnHdJijZJP+/GGZBe3IMNl1aficZnv6/4rI75054PkMSMnw0svE2vntOVNxIAz+uyHZeMbhWT6dTlql8+z20AsCefaSv7RqNz3ICLRuXpdM/1pBDDmTpLMU4MmIh3OZn9lXiebZurMcUJLum5iLDYNfMNJ4FOB+1aM+nXGXpNch0JSmyU8XrRJtvqDd2O70urwDcy36WWxd8kIyC9WeRnUbdIB0lvldS2eZvpSSys22lCyAHvELakd0rqWD1OpMYODlgqcnsidOfrLZmteqPYebBnajTsgxMg9KxhxtMy1JVa0RK3E+hBq1i2eyfttQvQ2QUT9sTUEj3JTcmTK6w8h/tiv9GuYlulxS9d903k7suwX3ZhP43l43fMH7758lozoBu21lfGq+1e0WfzIoLM/UFsz74KG8Pk2BcUz8XSENKNs19NTRH318j4SJ8fe6cd0TS02Pw90SDO3EOmG2fuJdOLM/eR2YwzzyRjVFUy95N5SDKmjxcSy/+w7CF26r423WG+TtavW9pkv16mMfkj1Y+wi9o/jt1vHHsizw1/NCzL75zMF4jM57xMYMN6IiEbvGz/L8nrhSIfPBu/+VqubPu7gucYZsKXjSlngBFhg+OHtFxZXNC2ew/PfYL9BqZKv4FJRlcI4Ij3tEicwwwWzZ+OvManM8l55Wu+z1c5ZyGVeVjbTf8kmzaAYKQEhFfEvCav7FNXO7/gamfejeE0HXO2RxMHF3BRstzEHTKOmTIv2NwxAFVjpgF0fCDwamb6cldVxsmaS/1X5sXHkiZekT/WY/OriXTKXsOUXVXuU8i8eYMYyRgcv1fBr3rsRxgxeTzNe9ly9Wrv6hqZDryWDvwvWgoAAIWWDWyU9R3Hf//nXlraXgEFWxUQneBUuIKCaeTuOVHuHJmbXTanU68OR0U726q7MpdIYUBR6MUtBrLA1HVXcMYpmW9M7grDBSTAVHryomABedE7YC7ZImMC2z6//x3lspDZ9Mn/d7/X7+/t/zzGOOKRqrfW/uWpisAiIz/kyVVfd0OibXbzzd9vufPbP2j4xu33f7e+rfm2u+VCGSZmuFxqRorXa0Qc8RrftLYftbc0tSbEb8rnisggqdKDP3sMkXWOiBEbRy4Xr+NrmDGrafTE/6d/oZKDzU/V0LGGV6jh9NZE02OtMx4efXvrwz8bfcuM1tkzfiJ++Wo3TxsAeIaoJwOEgO97TY8nZPgCxKPB9HX05snV1r18q2nmQ+0tYn+ML/64xsQeepjft7S1PNLWqsl6F4n8Evt5PlwviNWMdDr3Tfqn58HaeMKr7LL5Igd84h/MPzlYFY+oSOB2iIwTY5z5NzSOLZUY/xOz+85QK2d+c6i7VOIUJR5nQUMgUCrx+OdMSD8hxussaD49q1Ti9XdMSBPH5yxY9ONTpRKff05jYrEYv7OwoWV8qcTv71jZ9biYMmfhviuXlErK/B218Uliyp2FzR/vLJWUq2SjmEFO5+ktV5RKBmmmIfXW+edl00slFWqDtwqnc8mjbaWSSn9Hom+i5tPZcGZpqaSqmA82F320tlQSKNp46MLM/aWS6kJ1BhljG3q2u+LMTfRN9gzbseDg5pOecQ/Ub7/1oo5Tx7o9g/3TveLLlUkVfdV58UqZlIsETPVcJn7wYNGe2e5oH7Ti1FarqPXSymgNNFvNSzNQrIpK5pp5xvzcyHwGxshCI51G2LYnjTxlZLGRVWbur5df7Gw1E2Wb8b5r5D0j+1F05FeO8RtgMKbMeeXZ0SsMPC7q7cxDbAgUBn+YXKKckc4ouUzGGs2ksBeejhXLl7O0Rq6SEVItlz7+6mMPjpGg04mGv7JJTD7VE0ZRHCWSwRsjTjpXFhkg2MSIkwze7A4QPV1Z18lG/3OOqI2nXCsaIPBXcMgp8jbLmAw+Y38gfiacT1VGnPa+ye4AgaQg4tRLQMRNBi+PeLLRzYC6PNLT9Xw4kxsT8cRqWsJ16WsietbGJxYYsZp6q9HeFyqY5FNTQS74nxrx1MZHWKI2PsG1GnXpaa6a6Gl9KKFOVcNGURMNqz7sWSdGYdqyKIHgHF5LDIiUkCcdMZncC8QlwQJxzEV8JFRCDIgqI2JiNf3kMT5CRe8BXZEQudIlo3vA6QXiTJ5c2JMMtrrxxBb055DROmUsAvhrMH5hT08+tcwSPV0r6NOasCee+A3I0sBM4as3TPtfJnLXFLz/DsmNN1JAPTOe9r5lAOjP1KWf0nAZT0/XAwCR3nhiqp4hWx6RDaF4wkf8pjBN6Kf4bxK/PxxPBFxHCU1CjnIDp3PPEnNSL6FmWSKfutbaU/gDQGylit08J8MekZtobwjpTThc7BYZb8DoDjcmdrrWJBk8AdRr3GzUq72aSTECTMRye6LxB0tkcu+Q+yAdkX5S9dHvz2F86VIuibT35bH3Yfa+i48KBugNwOn5tOsUiNkuDdoDwiIhstJ1GhP7QbPS9SgRT6ylRrtgbFWs7/FjD9DW4+mwS+FWI/kcreX2hDHfEpnc/WgedIE2FWi7gRXk3KRIRlDS17Ef4aZzzysSHcWOgiQZjGE/AckoDTeNDP7GsM/CZJM2vZPGPUcHnrOnJ5N72RL51FoirA7j4x3iboDxPhEOq8aHOPRi34/zUS5LWx5hIBWqj33opYun0HgkTPOOuY2JvlA2+gE+clMYqQxOJvWeba8cOu+eJ4PXkVqRyOSOuoxevSVweSuutBctRC/TXi6BEYikcyl7kuOLlsjkVpOBZawhWIDNTJNaIIKzNLaf6mCsgfMZ0tUwclqfFwCcJ/hz9rTeldB+ZqOfqMldEB/x3AqgrS6jP5lwvZRjMlov6aL+z67LvxjoWE1dJBs95Tp16QssQR+HMl5+SlfFA85ksJwBGgbTUMaLI9RTZ3YUzE9BNFrHdBd4v0ZqG+0JY6UlstEuYl6quc6k0xdgEgOiJ0LFr4b4jHm6Gl9p1zLq0kmwxkjgbs15JgUYgUYXAhYqk1sJ8RY7tNGeFGGXJbRm+dQ2vTtO4HQ/U26I5KiP8kg8MRwfVcCfoIyh5HAbZhdQ90d0u+vIsk3rNQ6VeuzHYluhjMuwXUvnh7NZLWHSrozo1MRqzpCUhKjUIZK6opcvCHvifaklauP3kkd1mDoMAZm+jLbi5yodk1ns/hyizIKZLjDa+74g5a3hbHSIbvhQ0I0By70Uhhs9GVwKIwRsTZs7X+SgJfKpUyRWr9WuoNKTSEiRjtP3xmX8uJJnLIJa1RiHehXSQrflFVqfDK6gwNxl3HuWyEavZVw2hbgOPuEV9RiV7ub8snCXJYMuad/Eq2qJ1lEvtTfB0Q1jl94gaqLlvxZQ3GXqVK8ujaInDX7bEnXpfZxoiJwm7RMMip/k8JEMVrM/b5J2NQyiKKFhVaOIQ00U2L4CUnWq0DWKnmJq4yuA2R0GwOuW6OnaiO5O3fqdED4g9tOd6xTzEX7cxyIdgUE8JbLRVTx6y2a0OztBk0WqPvbrULyO+l+JtcKeVHaeJfKp+woaildN2vvGw8RHe99IHK6CMRI/RFFCw6qGxaEmCqzgA6TqVKFrFD3lt7ZdhbW1+2tvoXhiIjZFQl8C3LD1liDGdIoszOujTKRfdzYJQ9vxoj0JutESsZrdBY1k8ChpCfPxD+uDOCcswUgKasI4VdI9VNO54ayG3lxj7Elf6i3BPc7yGJ3iBhwdo3N6ZnTPGpCCPpPTQS0SyeAal72ehFGWqo1HlxLGE2NQOc5wXWJPGOr6ON70WtqrjToD+G1UXlfxNX2TKYFXPpnOEfqyoIebyWs7xmsJsU/jvYTKcX4stSflXmiJbLSNhA+p+zsg9hIiyvOulnMy9n+CORmzl893mR4vtqgx8Z31lms7k41eD4oiIXJUW6SfBEfVZ5QM/474Tnz+W6M+RAAvtVhIMF72tfGlhA+wC6vtSYu2W6IufZSesUL5lMOPk9jrO/5Ddar321v4GUrLugqMfGoKuVWwW1/obDmUvZmXoXZnnX64bGcMg72F91Kwl2ovs0Q22omfTVOYnWYipEO18btAXK/3bAzGEuYzhMYrYVuOAWKgAkroV7mWAChK6M2on6j65gfbHUg8uJoNlJ26oV0weljvlD0Zo4wltNfZ6G5d6r0E8mFyGIzsTl1a+3YfTo+jSRQl9DuQbwLOdbpdH0N8gHQbYQ/oQGSsukbRkyj6hjkO8HacohGruQP7HTzTYKwvQK9Lv4iP63m6XFnER7Hm2t636jzDYAnbdt3MAUKXif7XWwKf31Qr+pfAN1ulX7zaXT5v7AljmyUUUzzBN4XICfAYvimEph7TCvpp5g4c6mK8qlD8bAoIqJZ6LxCxmt9r2rvxsoVnM072KIA/YngMtWftSbzFllBE+RR7oKPZmNiLegzGNo2nmfaiVUhd5L8=(/figma)--&gt;&quot;&gt;&lt;/span&gt;&lt;span style=&quot;font-size: 15px;&quot;&gt;FilterComponent&lt;/span&gt;" style="whiteSpace=wrap;html=1;fontSize=27;" vertex="1" parent="1">
                    <mxGeometry x="410" y="190" width="120" height="60" as="geometry"/>
                </mxCell>
                <mxCell id="7" value="useState (checked, unchecked" style="text;strokeColor=none;align=center;fillColor=none;html=1;verticalAlign=middle;whiteSpace=wrap;rounded=0;fontSize=15;" vertex="1" parent="1">
                    <mxGeometry x="430" y="130" width="150" height="30" as="geometry"/>
                </mxCell>
                <mxCell id="8" value="data pulled, useEffect depending on changes" style="text;strokeColor=none;align=center;fillColor=none;html=1;verticalAlign=middle;whiteSpace=wrap;rounded=0;fontSize=15;" vertex="1" parent="1">
                    <mxGeometry x="185" y="260" width="130" height="70" as="geometry"/>
                </mxCell>
            </root>
        </mxGraphModel>
    </diagram>
</mxfile>